<?xml version="1.0" encoding="utf-8"?>
<!-- Generator: Adobe Illustrator 27.8.1, SVG Export Plug-In . SVG Version: 6.00 Build 0)  -->
<svg version="1.1" id="レイヤー_1" xmlns="http://www.w3.org/2000/svg" xmlns:xlink="http://www.w3.org/1999/xlink" x="0px"
	 y="0px" viewBox="0 0 95 95" style="enable-background:new 0 0 95 95;" xml:space="preserve">
<style type="text/css">
	.st0{fill:#1B2088;}
	.st1{fill:none;stroke:#1B2088;stroke-width:1.0499;stroke-miterlimit:10;}
	.st2{fill:#FFFFFF;}
</style>
<g id="XMLID_00000072279611612867933310000006751624997558616730_">
	<g>
		<rect x="0.5" y="0.5" class="st0" width="94.5" height="94.5"/>
	</g>
	<g>
		<rect x="0.5" y="0.5" class="st1" width="94.5" height="94.5"/>
	</g>
</g>
<g>
	<path class="st0" d="M13.2,4.9c22.9,0,45.8,0,68.6,0c0,28.4,0,56.9,0,85.3c-22.9,0-45.8,0-68.6,0C13.2,61.7,13.2,33.3,13.2,4.9z
		 M14.2,23.1c22.2,0,44.4,0,66.6,0c0.2,0,0.3,0,0.5,0c0,0,0,0,0.1,0c0,0,0,0,0.1-0.1c0-0.1,0-0.3,0-0.5c0-5.2,0-10.4,0-15.7
		c0-0.2,0-0.3,0-0.5c0-0.1-0.1-0.1-0.1-0.2c-0.2,0-0.3,0-0.5,0c-0.2,0.9-0.8,1.4-1.6,1.8c-1.9,0.8-3.9,0.8-5.9,0
		c-0.5-0.2-0.9-0.5-1.2-0.9c-0.2-0.2-0.3-0.5-0.4-0.8c-0.1,0-0.3,0-0.4,0c-0.2,0.7-0.5,1.2-1.1,1.5c-0.6,0.3-1.1,0.6-1.7,0.7
		c-1.4,0.3-2.8,0.2-4.2-0.3c-0.9-0.3-1.7-0.8-1.9-1.8c0,0,0-0.1-0.1-0.1s-0.3,0-0.5,0c-0.2,0.8-0.7,1.3-1.4,1.6
		c-1.6,0.8-3.3,0.9-5,0.5c-1.2-0.3-2.2-0.8-2.7-2.1c-0.2,0-0.3,0-0.4,0c-0.3,1-1,1.5-1.8,1.8c-0.5,0.2-1,0.3-1.5,0.4
		c-1.4,0.2-2.6,0.1-3.9-0.3c-0.9-0.4-1.7-0.8-2-1.9c-0.2,0-0.4,0-0.5,0c-0.1,0.7-0.5,1.1-1,1.4C41.5,7.7,41.2,7.9,41,8
		c-1.4,0.6-2.9,0.7-4.3,0.3c-1.3-0.3-2.5-0.7-2.9-2.2c-0.2,0-0.3,0-0.4,0c-0.5,1.1-0.9,1.5-1.9,1.9c-1.7,0.7-3.4,0.7-5.1,0.1
		c-1-0.3-1.8-0.8-2.1-2c-0.1,0-0.2,0-0.3,0c-0.1,0-0.1,0-0.2,0c-0.3,0.8-0.6,1.2-1.4,1.6c-1.6,0.8-3.3,0.9-5,0.5
		c-0.8-0.2-1.5-0.4-2-1c-0.3-0.3-0.5-0.7-0.7-1.1c-0.1,0-0.2,0-0.4,0C14.2,11.8,14.2,17.4,14.2,23.1z M14.5,26.1
		c0,9.9,0,19.7,0,29.5c1,0.5,1.9,0.9,3,1.4c0-0.3,0-0.5,0-0.8c0-2.5,0-5,0-7.5c0-0.3,0.1-0.7,0.2-1c0.3-0.9,0.6-1.7,0.9-2.6
		c0-0.1,0.1-0.2,0.2-0.5c1,4.9,1.9,9.7,2.9,14.4c1.1,0.5,2,1,3,1.5s2,1,3,1.5c0.1-0.8,0.1-35.4,0-35.9c-0.5-0.1-2.3-0.1-2.9,0
		c0,0.2,0,0.5,0,0.7c0,10.7,0,21.4,0,32c0,0.2,0,0.5,0,0.7c-0.4-1.4-0.7-2.8-0.9-4.2c-0.4-2.2-0.9-4.4-1.3-6.5
		c-0.7-3.3-1.3-6.5-2-9.8c0-0.2,0-0.4,0.1-0.6c0.9-2.9,1.7-5.9,2.6-8.8c0.4-1.2,0.7-2.4,1-3.7c-1.1,0-2.1,0-3.2,0
		c-0.6,1.9-1.1,3.8-1.7,5.7c-0.6,1.9-1.1,3.7-1.8,5.6c0-3.8,0-7.5,0-11.3C16.4,26.1,15.5,26.1,14.5,26.1z M60.1,44.3
		c0-2.7,0.1-5.4-0.2-8.1c-0.2-1.7-0.4-3.4-0.8-5.1c-0.4-1.4-0.9-2.8-1.8-3.9c-0.5-0.7-1.2-1.2-2.1-1.5c-0.5-0.2-1-0.2-1.4,0
		c-1.1,0.4-1.8,1.2-2.4,2.1c-0.8,1.2-1.2,2.6-1.5,4s-0.6,2.9-0.7,4.3c-0.1,1.4-0.3,2.9-0.3,4.3c-0.1,3.9-0.1,7.7,0.1,11.6
		c0.1,1.5,0.1,3.1,0.2,4.6c0,0.7,0.1,1.4,0.2,2.1c0.1,1.2,0.3,2.4,0.5,3.7c0.2,1.6,0.6,3.2,1.2,4.8c0.3,0.7,0.7,1.3,1.2,1.9
		c0.8,0.8,2.2,0.8,2.8,0.2c0.4-0.4,0.9-0.8,1.2-1.3c1.3-1.7,2.1-3.6,2.6-5.6c0.7-2.7,1-5.5,1.2-8.3c0.1-1.5,0.1-3,0.1-4.5
		C60.1,47.8,60.1,46,60.1,44.3z M39.2,26.2c-0.1,0.5-0.1,41,0,41.6c0.9,0.4,1.8,0.9,2.8,1.3c0-0.3,0-0.5,0-0.7c0-3.6,0-7.2,0-10.8
		c0-0.3,0-0.6,0.1-0.9c0.4-1.5,0.7-3.1,1.1-4.6c0.4,1.6,0.6,3.2,0.9,4.7c0.3,1.6,0.5,3.2,0.7,4.8s0.5,3.2,0.7,4.8s0.5,3.2,0.7,4.8
		c1.1,0.7,2.2,0.7,3.2-0.1c0-0.3-0.1-0.5-0.1-0.8c-0.3-1.9-0.6-3.9-0.9-5.8c-0.3-1.7-0.6-3.5-0.9-5.2c-0.2-1.5-0.5-3-0.7-4.5
		c-0.3-1.8-0.6-3.7-0.9-5.5c-0.3-1.6-0.5-3.2-0.8-4.8c-0.1-0.4-0.1-0.7,0-1.1c0.2-0.8,0.4-1.7,0.6-2.5c0.5-2.3,1-4.6,1.5-6.9
		c0.5-2.2,0.9-4.3,1.4-6.5c0.1-0.4,0.3-0.8,0.2-1.2c-0.8-0.1-2.8-0.1-3.2,0C44.5,31.5,43.4,36.8,42,42c0-5.3,0-10.5,0-15.8
		C41.1,26.2,40.2,26.2,39.2,26.2z M66,56.7c-0.1,0-0.3-0.1-0.4-0.1c-0.6-0.2-0.8-0.7-0.9-1.3c-0.5-2-0.7-4.1-0.7-6.2
		c0-7.5,0-14.9,0-22.4c0-0.2,0-0.3,0-0.5c-0.5,0-1,0-1.5,0s-0.9,0-1.4,0c0,0.3,0,0.5,0,0.8c0,7.1,0,14.2,0,21.3c0,1.6,0,3.1,0.1,4.7
		c0,0.9,0.1,1.8,0.1,2.7c0.1,1.5,0.3,3,0.7,4.5c0.2,1,0.6,2,1.2,2.9c0.7,1,1.7,1.3,2.7,0.8c0.6-0.3,1.1-0.7,1.5-1.1
		c1.3-1.3,2-3,2.5-4.7c0.7-2.6,0.9-5.2,1-7.8c0.1-2,0-4,0-6c0-5.8,0-11.5,0-17.3c0-0.3,0-0.5,0-0.7c-0.7-0.2-2.4-0.1-2.8,0.1
		c0,0.1,0,0.3,0,0.4c0,7,0,14,0,21.1c0,1.3,0.1,2.5-0.1,3.8c-0.1,1-0.2,2.1-0.5,3.1C67.1,55.5,66.7,56.2,66,56.7z M36.8,36.9
		c0.1-0.1,0.1-0.2,0.2-0.4c0.4-1.7,0.9-3.3,1.3-5c0.1-0.2,0.1-0.5,0-0.8c-0.3-1.2-0.7-2.5-1.4-3.5c-0.4-0.6-0.8-1.1-1.4-1.4
		c-0.3-0.2-0.7-0.4-1.1-0.3c-0.7,0.1-1.4,0.4-1.9,1c-1.2,1.3-1.9,3-2.3,4.7c-0.3,1.1-0.4,2.1-0.6,3.2c-0.2,1.2-0.4,2.4-0.6,3.6
		c-0.1,0.6-0.1,1.2-0.1,1.8c-0.1,1.4-0.2,2.8-0.2,4.2c0,1,0,2,0.1,3c0,1.3,0.1,2.5,0.2,3.8c0,0.1,0,0.2,0,0.3
		c0.1,0.8,0.2,1.6,0.3,2.4c0.1,0.8,0.1,1.6,0.2,2.4c0.2,1.1,0.4,2.1,0.6,3.2c0.3,1.2,0.7,2.4,1.3,3.5c0.2,0.4,0.4,0.7,0.6,1.1
		c0.5,1,1.2,1.8,2,2.5c0.2,0.1,0.4,0.2,0.6,0.3c1,0.2,1.9-0.2,2.5-1c0.6-0.9,1-1.8,1.3-2.9c0.1-0.3,0.1-0.6,0-0.9
		c-0.2-1.1-0.5-2.1-0.7-3.2c-0.2-1-0.5-2-0.7-3c-0.1,0.2-0.2,0.2-0.2,0.3c-0.2,0.6-0.3,1.2-0.6,1.7c-0.2,0.4-0.4,0.8-0.7,1.2
		c-0.4,0.5-1,0.5-1.5,0c-0.1-0.1-0.2-0.2-0.3-0.4c-0.3-0.5-0.6-1-0.8-1.5c-0.4-0.9-0.6-1.9-0.7-2.9c-0.1-1.3-0.4-2.5-0.5-3.8
		c-0.1-1.2-0.1-2.3-0.2-3.5c0-0.9,0-1.7,0-2.6c0-2.3,0-4.5,0.4-6.8c0.2-0.8,0.2-1.6,0.6-2.4c0.4-0.8,0.9-1.5,1.9-1.9
		c0.7,0.3,1,0.9,1.2,1.5C36.2,35.1,36.5,36,36.8,36.9z M74.7,32C74.7,32.1,74.8,32.1,74.7,32c0.1,8.9,0.1,17.6,0.1,26.4v0.1
		c0,0,0,0,0,0.1c0,0,0,0,0.1,0c0.9-0.5,1.9-0.9,2.8-1.4c0-8.5,0-17,0-25.4c1.1-0.3,2.3-0.2,3.3-0.4c0.1-1,0.1-4.8,0-5.3
		c-3.2,0-6.4,0-9.6,0c-0.1,0.7-0.1,5.7,0,6.2C72.6,32.3,73.6,32.1,74.7,32z M73.6,81.1L73.6,81.1c-0.5-1.2-0.9-2.3-1.2-3.5
		c-0.4-1.2-0.7-2.4-1.1-3.5c-0.8,0-1.5,0-2.2,0c-0.3,0.9-0.6,1.9-0.9,2.8s-0.6,1.8-0.9,2.8c-0.3,0.9-0.6,1.8-0.8,2.8
		c0.7,0,1.4,0,2,0c0.3-0.6,0.3-1.4,0.7-2c0.7,0,1.3,0,2,0c0.2,0.7,0.4,1.3,0.6,2c1.3,0,2.6,0.1,3.9,0c0-1.5,0-3,0-4.5
		c0.4,0.9,0.8,1.6,1.2,2.3c0.4,0.7,0.8,1.5,1.2,2.2c0.7,0,1.3,0.1,1.9,0c0.1-0.6,0.1-7.8,0-8.4c-0.6,0-1.3,0-2,0c0,1.4,0,2.8,0,4.2
		h-0.1c-0.8-1.4-1.5-2.8-2.3-4.2c-0.3,0-0.7,0-1,0s-0.7-0.1-1,0.1C73.6,76.4,73.6,78.8,73.6,81.1z M56.1,82.5c0.2-0.7,0.4-1.3,0.6-2
		c0.7,0,1.3,0,2,0c0.1,0.4,0.2,0.7,0.3,1s0.2,0.7,0.3,1c1.1,0.1,3.5,0.1,4-0.1c0-0.4,0-0.9,0-1.3s-0.1-0.9,0.1-1.4
		c0.4,0,0.7,0,1.1,0c1.4-0.1,2.6-0.8,2.8-2.4c0.2-1.2-0.3-2.5-1.7-2.9c-0.4-0.1-0.8-0.2-1.2-0.2c-0.9,0-1.8,0-2.7,0
		c-0.1,0-0.3,0-0.5,0.1c0,2.4,0,4.7,0,7c-0.5-1.2-0.8-2.3-1.2-3.5s-0.7-2.4-1.2-3.6c-0.8,0-1.5,0-2.2,0c-0.9,2.8-1.7,5.6-2.6,8.4
		C54.7,82.5,55.4,82.5,56.1,82.5z M30.3,82.4c0-0.7,0-1.3,0-1.9s0.3-1,0.8-1.4c0.6,1.1,1.2,2.2,1.8,3.2c0.4,0,0.7,0,1.1,0
		c0.4,0,0.8,0.1,1.2-0.1c-0.1-0.3-0.2-0.5-0.4-0.7c-0.8-1.3-1.5-2.6-2.3-3.9c-0.2-0.3-0.2-0.5,0-0.8c0.4-0.5,0.8-1.1,1.3-1.6
		c0.1-0.1,0.2-0.1,0.3-0.2c0.1,0.1,0.1,0.1,0.1,0.2c0.6,1.2,1.1,2.4,1.7,3.6C36,79,36,79.3,36,79.5c0,0.7,0,1.5,0,2.2
		c0,0.2,0,0.3,0,0.5c0.7,0,1.4,0,2.1,0c0-0.2,0-0.4,0-0.6c0-0.7,0-1.3,0-2c0-0.4,0.1-0.7,0.2-1.1c0.7-1.4,1.3-2.8,2-4.2
		c0.1-0.1,0.1-0.3,0.2-0.5c-0.8,0-1.5,0-2.2,0c-0.4,1-0.8,2-1.3,3.1c-0.4-1.1-0.8-2.1-1.2-3.1c-1.2,0-2.3,0-3.5,0
		c-0.7,0.9-1.3,1.8-2.1,2.8c0-1,0-1.9,0-2.8c-0.7,0-1.4,0-2,0c0,0.1-0.1,0.1-0.1,0.1c0,2.6,0,5.2,0,7.7c0,0.1,0,0.3,0,0.4
		c0,0,0,0,0,0.1c0,0,0,0,0.1,0.1C29,82.4,29.6,82.4,30.3,82.4z M20.4,78.2c0,1,0.1,1.9,0.6,2.7c0.8,1.3,2,1.8,3.5,1.7
		c1.5-0.1,2.5-1,3-2.4c0.4-1.2,0.4-2.4,0.1-3.6c-0.2-0.6-0.4-1.1-0.8-1.6c-1.5-1.8-5.1-1.6-6.1,1.2C20.5,76.9,20.4,77.5,20.4,78.2z
		 M47.4,78.3c0-0.2,0-0.4,0-0.6c-0.1-0.7-0.2-1.5-0.6-2.1c-0.8-1.3-1.9-1.8-3.4-1.7c-1.1,0.1-2,0.5-2.6,1.5
		c-1.1,1.7-1.1,3.6-0.2,5.4c0.6,1.2,1.7,1.8,3,1.9c1.4,0,2.5-0.5,3.2-1.8C47.2,80,47.4,79.2,47.4,78.3z M20.6,74.1
		c-1.1-0.1-5.9-0.1-6.4,0c0,0.6-0.1,1.2,0,1.8c0.7,0,1.3,0,2.1,0c0,0.3,0,0.5,0,0.7c0,1.7,0,3.4,0,5.1c0,0.2,0,0.5,0,0.7
		c0.8,0.1,1.7,0.1,2.2-0.1c0-2.1,0-4.2,0-6.3c0.4,0,0.7-0.1,1.1-0.1c0.3-0.1,0.7,0.1,1-0.1C20.6,75.2,20.6,74.6,20.6,74.1z
		 M48.9,80.8C49,81,49,81.1,49,81.2c0.5,0.8,1.2,1.3,2.1,1.4c1.3,0.1,2.4-0.3,2.9-1.7c0.1-0.4,0.2-0.8,0.2-1.1c0-1.8,0-3.5,0-5.3
		c0-0.1,0-0.3,0-0.5c-0.7,0-1.4,0-2.1,0c0,0.3,0,0.5,0,0.7c0,1.6,0,3.1,0,4.7c0,0.3,0,0.5-0.1,0.8c-0.1,0.4-0.5,0.6-0.9,0.4
		c-0.2-0.1-0.4-0.3-0.5-0.4s-0.2-0.3-0.3-0.5C49.8,80.1,49.4,80.4,48.9,80.8z M29.5,84.1c-0.1,0.7-0.1,4.1,0,4.6c0.6,0,1.3,0,1.9,0
		c0.4,0,0.8-0.3,0.9-0.7c0.2-0.5,0.2-1-0.2-1.4c-0.1-0.1-0.2-0.2-0.3-0.3c0.1-0.2,0.2-0.3,0.3-0.4c0.4-0.8,0.1-1.6-0.8-1.7
		C30.8,84.2,30.2,84.2,29.5,84.1z M52.8,86.2c-0.3,0.4-0.5,0.7-0.6,1c-0.3,0.7,0.1,1.5,0.9,1.7c0.4,0.1,0.8,0.1,1.1-0.1
		c0.2-0.1,0.4-0.2,0.6-0.3c0.3,0.2,0.6,0.4,1,0.4c0-0.2,0.1-0.4,0.1-0.6c-0.2-0.1-0.4-0.3-0.6-0.4c0.2-0.5,0.6-0.9,0.6-1.5
		c-0.2,0-0.5,0-0.7,0c-0.2,0.4-0.3,0.7-0.5,1.2c-0.3-0.4-0.6-0.7-0.9-1c0.2-0.2,0.4-0.3,0.5-0.5s0.3-0.4,0.3-0.6
		c0.1-0.4-0.1-0.9-0.4-1.1c-0.4-0.2-0.9-0.2-1.2,0.2c-0.3,0.4-0.4,0.8-0.3,1.3C52.7,85.9,52.7,86,52.8,86.2z M42.9,84.2
		c0,1.5,0,3,0,4.5c0.3,0,0.5,0,0.8,0c0-0.5,0-1,0-1.5s-0.1-1-0.1-1.5h0.1c0.5,1,1,2,1.5,3c0.3,0,0.6,0,0.8,0c0.1-0.7,0.1-4,0-4.5
		c-0.2,0-0.4-0.1-0.7,0.1c0,1,0,2,0,3.1c-0.5-1.1-1-2.2-1.5-3.2C43.4,84.2,43.2,84.2,42.9,84.2z M68.7,87.4
		c-0.1-0.1-0.1-0.1-0.1-0.2c-0.4-0.8-0.8-1.7-1.2-2.5c-0.3-0.6-0.4-0.6-1-0.4c-0.1,0.6-0.1,4,0,4.5c0.2,0,0.4,0,0.7,0c0-1,0-2,0-3.1
		c0.5,1.1,1,2.1,1.5,3.1c0.2,0,0.4,0,0.6,0c0.1,0,0.2,0,0.3,0c0-1.5,0-3,0-4.5c-0.3,0-0.5,0-0.7,0C68.7,85.3,68.7,86.3,68.7,87.4z
		 M36.7,86.5c0-0.5,0-0.9-0.3-1.4c-0.3-0.7-0.9-1-1.6-1c-0.7,0-1.4,0.4-1.6,1.2c-0.1,0.3-0.2,0.7-0.2,1c0,0.8,0.1,1.5,0.7,2.1
		c0.6,0.7,2.1,0.7,2.7-0.4C36.6,87.5,36.8,87,36.7,86.5z M49.4,87.1c0.1,0.3,0.1,0.6,0,0.8c-0.7,0.3-1.4,0-1.6-0.7
		c-0.1-0.5-0.1-1.1,0.1-1.6c0.3-0.6,0.8-0.9,1.5-0.6c0.1,0.1,0.2,0.1,0.4,0.2c0.1-0.2,0.2-0.4,0.3-0.5c-0.5-0.8-1.7-0.7-2.3-0.3
		c-1.2,0.9-1.2,2.9-0.3,3.8c0.8,0.8,2,0.8,2.8,0c0-0.3,0-0.6,0-0.9s0.1-0.7-0.1-1c-0.5,0-0.9,0-1.4,0c-0.1,0.3-0.1,0.5,0,0.7
		C49,87,49.2,87,49.4,87.1z M24.4,84.2c-0.1,0.7-0.1,4,0,4.5c0.2,0,0.4,0,0.7,0c0.1-0.7-0.1-1.4,0.6-1.8c0.3,0.6,0.7,1.2,1,1.8
		c0.3,0,0.6,0.1,0.8-0.1c-0.2-0.4-0.5-0.8-0.7-1.3c-0.2-0.4-0.5-0.9-0.7-1.3c0.4-0.6,0.8-1.2,1.2-1.8c-0.4,0-0.6,0-0.9,0
		c-0.4,0.6-0.8,1.2-1.3,1.8H25c0-0.6,0-1.1,0-1.7C24.9,84.2,24.7,84.2,24.4,84.2z M15.1,84.2c-0.1,0.7-0.1,4,0,4.5
		c0.2,0,0.4,0,0.7,0c0-0.7-0.1-1.4,0.6-1.9c0.3,0.6,0.7,1.3,1,1.9c0.3,0,0.6,0.1,0.9-0.1c-0.1-0.2-0.2-0.4-0.3-0.6
		c-0.3-0.5-0.5-1-0.8-1.5c-0.2-0.3-0.2-0.6,0-0.9c0.3-0.3,0.5-0.6,0.7-0.9c0.1-0.1,0.1-0.2,0.2-0.4c-0.3,0-0.5,0-0.8,0
		c-0.4,0.6-0.9,1.2-1.3,1.9h-0.1c0-0.6,0-1.2,0-1.8C15.5,84.2,15.3,84.2,15.1,84.2z M71.3,86c0-0.4-0.1-0.8,0.2-1c0.3,0,0.5,0,0.8,0
		s0.5,0,0.8,0c0-0.3,0-0.5,0-0.7c-0.5-0.1-1.9-0.1-2.5,0c0,1.5,0,2.9,0,4.5c0.9,0,1.7,0,2.5,0c0-0.3,0-0.5,0-0.8c-0.6,0-1.1,0-1.7,0
		c0-0.4,0-0.7,0-1.1c0.5,0,1,0,1.5-0.1c0-0.3,0-0.5,0-0.7C72.3,86,71.8,86,71.3,86z M73.7,88.2c0.6,0.7,1.3,0.8,2,0.6
		c0.8-0.2,1.3-1.2,0.9-2c-0.2-0.4-0.6-0.6-0.9-0.8c-0.3-0.1-0.5-0.2-0.7-0.4c-0.3-0.2-0.3-0.6,0.1-0.8c0.1-0.1,0.3-0.1,0.4,0
		c0.2,0.1,0.5,0.2,0.8,0.3c0.1-0.1,0.2-0.3,0.3-0.5c-0.3-0.4-0.6-0.5-1-0.6c-0.6-0.1-1.3,0.2-1.6,0.8c-0.3,0.6-0.1,1.3,0.5,1.7
		c0.3,0.2,0.6,0.3,0.9,0.4c0.1,0.1,0.2,0.1,0.3,0.2c0.3,0.2,0.3,0.7-0.1,0.8c-0.2,0.1-0.5,0.1-0.7,0c-0.3-0.1-0.5-0.2-0.8-0.3
		C74,87.8,73.8,88,73.7,88.2z M80.1,84.7c-0.3-0.5-0.8-0.6-1.2-0.7c-0.9-0.1-1.6,0.8-1.5,1.6c0.1,0.5,0.4,0.8,0.8,1s0.7,0.4,1.1,0.5
		c0.1,0.6-0.1,0.9-0.6,0.8c-0.2,0-0.4-0.1-0.6-0.2c-0.1-0.1-0.3-0.1-0.4-0.2c-0.2,0.2-0.3,0.4-0.4,0.6c0.6,0.7,1.3,0.8,2,0.6
		c0.8-0.2,1.1-1,0.9-1.7c-0.1-0.5-0.5-0.7-0.9-0.9c-0.2-0.1-0.5-0.2-0.7-0.3c-0.2-0.1-0.4-0.3-0.3-0.5c0.1-0.3,0.3-0.4,0.5-0.4
		c0.3,0,0.6,0.1,1,0.2C79.8,85.1,79.9,84.9,80.1,84.7z M38.8,87.1c0.3,0.6,0.5,1.2,0.8,1.7c0.3,0,0.6,0,0.9,0
		c-0.4-0.8-0.7-1.5-1.1-2.3c0.3-0.7,0.7-1.5,1.1-2.3c-0.3,0-0.6,0-0.8,0c-0.3,0.5-0.4,1-0.8,1.5c-0.3-0.6-0.5-1.1-0.7-1.5
		c-0.3,0-0.6,0-0.9,0c0.4,0.8,0.7,1.5,1.1,2.2c-0.4,0.8-0.7,1.5-1.1,2.3c0.3,0,0.6,0,0.9,0C38.2,88.2,38.5,87.7,38.8,87.1z
		 M23.7,88.2c-0.1-0.2-0.3-0.3-0.4-0.5c-0.1,0.1-0.2,0.1-0.3,0.2c-0.6,0.4-1.2,0.2-1.5-0.5c-0.3-0.6-0.2-1.3,0.1-1.9
		c0.2-0.4,0.7-0.6,1.2-0.4c0.2,0.1,0.3,0.1,0.5,0.2c0.1-0.1,0.2-0.2,0.2-0.3c0.1-0.1,0.1-0.2,0.1-0.3c-0.8-0.8-2-0.7-2.6,0.2
		c-0.6,0.9-0.7,1.8-0.3,2.8C21.2,89,22.6,89.3,23.7,88.2z M57.8,84.2c-0.1,0.8-0.1,4,0,4.5c0.2,0,0.4,0,0.7,0c0-0.6,0-1.1,0-1.6
		c0.5-0.2,1,0.1,1.5-0.2c0.1-0.2,0.1-0.5-0.1-0.7c-0.4,0-0.8,0-1.3,0c0-0.4,0-0.7,0-1.1c0.6,0,1.1,0,1.7-0.1c0-0.3,0-0.5-0.1-0.7
		C59.4,84.2,58.7,84.2,57.8,84.2z M63.7,85c0,1.3,0,2.5,0,3.7c0.3,0,0.6,0,0.9,0c0-0.4,0-0.8,0-1.3c0-0.4,0-0.8,0-1.2
		c0-0.4-0.1-0.8,0.1-1.2c0.4,0,0.7-0.1,1-0.1c0-0.3,0-0.5,0-0.7c-0.6-0.1-2.6-0.1-3,0c-0.1,0.3-0.1,0.3,0.1,0.7
		C63,85,63.3,85,63.7,85z M18.8,84.3c0,1.5,0,2.9,0,4.4c0.3,0,0.5,0,0.8,0c0.1-0.8,0.1-4.1,0-4.5c-0.2,0-0.3,0-0.5,0
		C19,84.2,18.9,84.2,18.8,84.3z M41.8,88.7c0.1-0.6,0.1-4,0-4.5c-0.2,0-0.5,0-0.7,0c0,1.5,0,3,0,4.5c0.2,0,0.3,0,0.4,0
		C41.6,88.7,41.7,88.7,41.8,88.7z M61.1,84.2c0,1.6,0,3,0,4.5c0.3,0,0.6,0.1,0.9-0.1c0-1.5,0-2.9,0-4.4
		C61.6,84.2,61.4,84.2,61.1,84.2z"/>
	<path class="st2" d="M14.2,23.1c0-5.7,0-11.3,0-16.9c0.1,0,0.3,0,0.4,0c0.3,0.4,0.5,0.8,0.7,1.1c0.5,0.6,1.3,0.9,2,1
		c1.7,0.4,3.4,0.3,5-0.5c0.8-0.4,1.1-0.8,1.4-1.6c0.1,0,0.1,0,0.2,0s0.2,0,0.3,0c0.3,1.1,1.1,1.6,2.1,2c1.7,0.6,3.4,0.5,5.1-0.1
		c1.1-0.4,1.4-0.8,1.8-1.8c0.1,0,0.3,0,0.4,0c0.4,1.4,1.7,1.9,2.9,2.2c1.5,0.3,2.9,0.3,4.3-0.3c0.3-0.1,0.5-0.2,0.7-0.4
		c0.5-0.3,0.9-0.8,1-1.4c0.2,0,0.3,0,0.5,0c0.2,1.1,1.1,1.6,2,1.9c1.5,0.2,2.7,0.3,4,0.1c0.5-0.1,1-0.2,1.5-0.4
		c0.9-0.3,1.5-0.9,1.8-1.8c0.1,0,0.3,0,0.4,0c0.4,1.3,1.5,1.8,2.7,2.1c1.7,0.4,3.4,0.3,5-0.5c0.7-0.3,1.2-0.8,1.4-1.6
		c0.2,0,0.3,0,0.5,0c0.1,0.1,0.1,0.1,0.1,0.1c0.2,1,1,1.5,1.9,1.8c1.4,0.5,2.8,0.6,4.2,0.3c0.6-0.1,1.2-0.4,1.7-0.7
		c0.6-0.3,1-0.8,1.1-1.5c0.2,0,0.3,0,0.4,0c0.1,0.3,0.2,0.6,0.4,0.8c0.3,0.4,0.7,0.7,1.2,0.9c1.9,0.8,3.9,0.8,5.9,0
		c0.8-0.3,1.4-0.8,1.6-1.8c0.2,0,0.3,0,0.5,0c0,0.1,0.1,0.1,0.1,0.2c0,0.2,0,0.3,0,0.5c0,5.2,0,10.4,0,15.7c0,0.2,0,0.3,0,0.5
		c0,0.1-0.1,0.1-0.1,0.1s0,0-0.1,0c-0.2,0-0.3,0-0.5,0C58.7,23.1,36.5,23.1,14.2,23.1z M40.8,18.6C40.8,18.6,40.9,18.6,40.8,18.6
		c0.7-0.4,1.3-0.8,2-1.3c0.7,0.5,1.3,0.9,1.9,1.3c0,0,0.1,0,0.1-0.1c-0.2-0.7-0.5-1.5-0.7-2.2c0.6-0.5,1.2-0.9,1.8-1.4v-0.1
		c-0.8,0-1.5,0-2.3,0c-0.3-0.8-0.4-1.6-0.8-2.3c-0.3,0.8-0.5,1.5-0.8,2.3c-0.8,0-1.6,0-2.4,0c0.7,0.5,1.3,1,2,1.5
		C41.3,17.1,41,17.8,40.8,18.6z M52.8,17.3c0.7,0.5,1.3,0.9,1.9,1.3l0.1-0.1c-0.2-0.7-0.5-1.4-0.7-2.2c0.6-0.5,1.2-0.9,1.8-1.4v-0.1
		c-0.8,0-1.5,0-2.2,0c-0.4-0.7-0.5-1.5-0.9-2.3c-0.3,0.8-0.5,1.6-0.8,2.3c-0.8,0-1.5,0-2.2,0v0.1c0.6,0.4,1.2,0.9,1.8,1.3
		c-0.2,0.8-0.5,1.5-0.8,2.4C51.5,18.2,52.1,17.8,52.8,17.3z M22.8,12.5c-0.3,0.8-0.5,1.6-0.8,2.4c-0.8,0-1.5,0-2.4,0
		c0.7,0.5,1.3,1,2,1.5c-0.2,0.7-0.5,1.5-0.7,2.4c0.7-0.5,1.4-1,2-1.4c0.7,0.5,1.3,0.9,2,1.5c-0.3-0.9-0.5-1.6-0.8-2.4
		c0.6-0.5,1.3-0.9,2-1.5c-0.9,0-1.7,0-2.5,0C23.4,14.1,23.1,13.3,22.8,12.5z M72.8,12.5c-0.3,0.8-0.5,1.6-0.8,2.4
		c-0.8,0-1.5,0-2.4,0c0.7,0.5,1.4,1,2,1.5c-0.3,0.8-0.5,1.5-0.8,2.4c0.8-0.5,1.4-1,2-1.4c0.7,0.5,1.3,0.9,2,1.4
		c-0.3-0.9-0.5-1.6-0.7-2.4c0.7-0.5,1.3-0.9,2-1.5c-0.9,0-1.7,0-2.5,0C73.3,14.1,73.1,13.4,72.8,12.5z M30.8,18.5
		C30.9,18.5,30.9,18.6,30.8,18.5c0.7-0.3,1.3-0.8,2-1.2c0.6,0.5,1.3,0.9,2,1.4c-0.3-0.9-0.5-1.6-0.7-2.4c0.6-0.5,1.2-0.9,1.8-1.4
		v-0.1c-0.8,0-1.5,0-2.3,0c-0.3-0.8-0.5-1.5-0.8-2.3c-0.4,0.8-0.4,1.6-0.9,2.3c-0.7,0-1.5,0-2.3,0c0.6,0.6,1.4,0.9,1.9,1.5
		C31.3,17.1,31.1,17.8,30.8,18.5z M60.9,18.5C60.9,18.5,60.9,18.6,60.9,18.5c0.7-0.3,1.3-0.8,1.9-1.2c0.7,0.4,1.2,1,2,1.3
		c-0.2-0.8-0.6-1.5-0.6-2.3c0.6-0.5,1.2-0.9,1.8-1.3v-0.1c-0.8,0-1.5,0-2.3,0c-0.2-0.8-0.5-1.5-0.7-2.3c-0.4,0.8-0.5,1.6-0.9,2.3
		c-0.8,0-1.5,0-2.3,0c0.6,0.6,1.4,0.9,1.9,1.5C61.3,17.1,61.1,17.8,60.9,18.5z"/>
	<path class="st2" d="M14.5,26.1c1,0,1.9,0,2.9,0c0,3.8,0,7.6,0,11.3c0.7-1.8,1.3-3.7,1.8-5.6c0.6-1.9,1.1-3.8,1.7-5.7
		c1.1,0,2.2,0,3.2,0c-0.3,1.2-0.7,2.5-1,3.7c-0.9,2.9-1.7,5.9-2.6,8.8c0,0.2,0,0.4,0,0.6c0.7,3.3,1.3,6.5,2,9.8
		c0.4,2.2,0.9,4.4,1.3,6.5c0.3,1.4,0.5,2.8,0.9,4.2c0-0.2,0-0.5,0-0.7c0-10.7,0-21.4,0-32c0-0.3,0-0.5,0-0.7c0.6-0.2,2.3-0.2,2.9,0
		c0.1,0.5,0.1,35.1,0,35.9c-1-0.4-2-1-3-1.5s-2-1-3-1.5c-1-4.7-1.9-9.5-2.9-14.4c-0.1,0.2-0.2,0.3-0.2,0.5c-0.3,0.9-0.6,1.7-0.9,2.6
		c-0.1,0.3-0.2,0.7-0.2,1c0,2.5,0,5,0,7.5c0,0.2,0,0.4,0,0.8c-1-0.5-2-1-3-1.4C14.5,45.7,14.5,35.9,14.5,26.1z"/>
	<path class="st2" d="M60.1,44.3c0,1.8,0,3.5,0,5.3c0,1.5,0,3-0.1,4.5c-0.2,2.8-0.4,5.6-1.2,8.3c-0.5,2-1.4,3.9-2.6,5.6
		c-0.4,0.5-0.8,0.9-1.2,1.3c-0.6,0.6-2,0.5-2.8-0.2c-0.6-0.5-1-1.2-1.2-1.9c-0.6-1.5-1-3.1-1.2-4.8c-0.2-1.2-0.3-2.4-0.5-3.7
		c-0.1-0.7-0.1-1.4-0.2-2.1C49,55.1,49,53.5,48.9,52c-0.2-3.9-0.1-7.7-0.1-11.6c0-1.4,0.2-2.9,0.3-4.3c0.1-1.5,0.3-2.9,0.7-4.3
		c0.3-1.4,0.8-2.8,1.5-4c0.6-0.9,1.3-1.7,2.4-2.1c0.5-0.2,1-0.2,1.4,0c0.9,0.3,1.5,0.8,2.1,1.5c0.9,1.2,1.4,2.5,1.8,3.9
		c0.4,1.7,0.7,3.4,0.8,5.1C60.1,38.8,60.1,41.6,60.1,44.3z M54.5,61.4c0.7-0.7,1.3-1.4,1.5-2.4c0.3-1.2,0.6-2.5,0.7-3.8
		c0.1-1.4,0.3-2.7,0.4-4.1c0.1-0.9,0-1.9,0-2.8c0-1.8,0.1-3.6,0.1-5.4c0-0.5-0.1-1-0.1-1.5c0-1.3-0.1-2.5-0.3-3.7
		c-0.2-1-0.4-2-0.9-2.9c-0.3-0.6-0.8-1.1-1.4-1.4c-0.5,0.1-0.8,0.5-1,0.9c-0.5,0.7-0.9,1.4-1.1,2.3c-0.4,1.6-0.6,3.2-0.6,4.8
		c0,1.8,0,3.6,0,5.3c0,0.7,0.1,1.5,0,2.2c-0.2,1.2,0,2.3,0.1,3.4c0,0.5,0.1,0.9,0.1,1.4c0.2,1.2,0.3,2.4,0.5,3.5s0.4,2.3,0.9,3.4
		C53.6,61.1,54,61.3,54.5,61.4z"/>
	<path class="st2" d="M39.2,26.2c0.9,0,1.8,0,2.8,0c0,5.3,0,10.6,0,15.8c1.3-5.2,2.4-10.5,3.6-15.7c0.4-0.1,2.4-0.1,3.2,0
		c0.1,0.4-0.1,0.8-0.2,1.2c-0.4,2.2-0.9,4.3-1.4,6.5c-0.5,2.3-1,4.6-1.5,6.9c-0.2,0.8-0.4,1.7-0.6,2.5c-0.1,0.4,0,0.7,0,1.1
		c0.2,1.6,0.5,3.2,0.8,4.8c0.3,1.8,0.6,3.7,0.9,5.5c0.2,1.5,0.4,3,0.7,4.5c0.3,1.7,0.6,3.5,0.9,5.2c0.3,1.9,0.6,3.9,0.9,5.8
		c0,0.3,0.1,0.5,0.1,0.8c-1.1,0.8-2.1,0.8-3.2,0.1c-0.2-1.6-0.5-3.2-0.7-4.8c-0.2-1.6-0.5-3.2-0.7-4.8s-0.5-3.2-0.7-4.8
		c-0.3-1.6-0.5-3.2-0.9-4.7c-0.4,1.5-0.7,3.1-1.1,4.6C42,57,42,57.3,42,57.6c0,3.6,0,7.2,0,10.8c0,0.2,0,0.4,0,0.7
		c-1-0.4-1.9-0.9-2.8-1.3C39.1,67.2,39.1,26.8,39.2,26.2z"/>
	<path class="st2" d="M66,56.7c0.7-0.6,1.2-1.3,1.4-2.1c0.3-1,0.4-2,0.5-3.1c0.2-1.3,0.1-2.6,0.1-3.8c0-7,0-14,0-21.1
		c0-0.1,0-0.3,0-0.4c0.4-0.2,2.1-0.2,2.8-0.1c0,0.2,0,0.5,0,0.7c0,5.8,0,11.5,0,17.3c0,2,0,4,0,6c-0.1,2.6-0.3,5.3-1,7.8
		c-0.5,1.7-1.2,3.4-2.5,4.7c-0.4,0.5-0.9,0.9-1.5,1.1c-1.1,0.5-2.1,0.2-2.7-0.8c-0.6-0.9-0.9-1.8-1.2-2.9c-0.4-1.5-0.6-3-0.7-4.5
		c-0.1-0.9-0.1-1.8-0.1-2.7c0-1.6-0.1-3.1-0.1-4.7c0-7.1,0-14.2,0-21.3c0-0.2,0-0.5,0-0.8c0.5,0,1,0,1.4,0c0.5,0,0.9,0,1.5,0
		c0,0.2,0,0.4,0,0.5c0,7.5,0,14.9,0,22.4c0,2.1,0.2,4.2,0.7,6.2c0.1,0.5,0.3,1,0.9,1.3C65.7,56.7,65.8,56.7,66,56.7z"/>
	<path class="st2" d="M36.8,36.9c-0.3-0.9-0.6-1.7-0.9-2.6c-0.2-0.6-0.5-1.2-1.2-1.5c-0.9,0.3-1.4,1.1-1.9,1.9
		c-0.4,0.7-0.5,1.6-0.6,2.4c-0.5,2.2-0.4,4.5-0.4,6.8c0,0.9,0,1.7,0,2.6c0,1.2,0.1,2.3,0.2,3.5c0.1,1.3,0.3,2.5,0.5,3.8
		c0.1,1,0.3,2,0.7,2.9c0.2,0.5,0.5,1,0.8,1.5c0.1,0.1,0.2,0.2,0.3,0.4c0.5,0.5,1,0.5,1.5,0c0.3-0.3,0.5-0.7,0.7-1.2
		c0.2-0.6,0.4-1.1,0.6-1.7c0-0.1,0.1-0.1,0.2-0.3c0.3,1.1,0.5,2,0.7,3c0.2,1.1,0.5,2.1,0.7,3.2c0.1,0.3,0,0.6,0,0.9
		c-0.2,1-0.6,2-1.3,2.9c-0.6,0.8-1.4,1.2-2.5,1c-0.2,0-0.5-0.2-0.6-0.3c-0.9-0.6-1.6-1.5-2-2.5c-0.2-0.4-0.4-0.7-0.6-1.1
		c-0.6-1.1-1-2.3-1.3-3.5c-0.2-1-0.4-2.1-0.6-3.2c-0.1-0.8-0.1-1.6-0.2-2.4c-0.1-0.8-0.2-1.6-0.3-2.4c0-0.1,0-0.2,0-0.3
		c-0.1-1.3-0.1-2.5-0.2-3.8c0-1-0.1-2-0.1-3c0-1.4,0.1-2.8,0.2-4.2c0-0.6,0.1-1.2,0.1-1.8c0.2-1.2,0.4-2.4,0.6-3.6
		c0.2-1.1,0.3-2.2,0.6-3.2c0.4-1.7,1.1-3.3,2.3-4.7c0.5-0.5,1.1-0.9,1.9-1c0.4-0.1,0.8,0.1,1.1,0.3c0.6,0.3,1.1,0.8,1.4,1.4
		c0.7,1.1,1.1,2.3,1.4,3.5c0.1,0.2,0,0.5,0,0.8c-0.4,1.7-0.8,3.3-1.3,5C36.9,36.6,36.9,36.8,36.8,36.9z"/>
	<path class="st2" d="M74.7,32c-1.1,0-2.1,0.3-3.2,0.3c-0.1-0.5-0.1-5.6,0-6.2c3.2,0,6.4,0,9.6,0c0.1,0.5,0.1,4.3,0,5.3
		c-1.1,0.3-2.2,0.1-3.3,0.4c0,8.5,0,16.9,0,25.4c-1,0.5-1.9,1-2.8,1.4h-0.1c0,0,0,0,0-0.1v-0.1c0-8.8,0-17.5,0-26.3
		C74.8,32.2,74.8,32.1,74.7,32z"/>
	<path class="st2" d="M73.6,81.1c0-2.3,0-4.6,0-7c0.4-0.2,0.7-0.1,1-0.1s0.6,0,1,0c0.8,1.4,1.5,2.8,2.3,4.2H78c0-1.4,0-2.8,0-4.2
		c0.7,0,1.3,0,2,0c0.1,0.5,0.1,7.8,0,8.4c-0.6,0.1-1.3,0-1.9,0c-0.4-0.7-0.8-1.5-1.2-2.2c-0.4-0.7-0.8-1.5-1.2-2.3c0,1.6,0,3,0,4.5
		c-1.3,0.1-2.6,0-3.9,0c-0.2-0.7-0.4-1.3-0.6-2c-0.7,0-1.3,0-2,0c-0.4,0.6-0.4,1.3-0.7,2c-0.7,0-1.3,0-2,0c0.2-1,0.6-1.9,0.8-2.8
		c0.3-0.9,0.6-1.9,0.9-2.8s0.6-1.8,0.9-2.8c0.8,0,1.5,0,2.2,0c0.5,1.1,0.7,2.4,1.1,3.5c0.4,1.2,0.8,2.3,1.1,3.5
		C73.5,81.1,73.6,81.1,73.6,81.1z M70.2,76.9L70.2,76.9c-0.2,0.5-0.4,1.1-0.6,1.7c0.4,0,0.7,0,1.1,0C70.5,78,70.3,77.5,70.2,76.9z"
		/>
	<path class="st2" d="M56.1,82.5c-0.7,0-1.4,0-2.2,0c0.9-2.9,1.8-5.6,2.6-8.4c0.7,0,1.4,0,2.2,0c0.5,1.2,0.8,2.4,1.2,3.6
		s0.7,2.3,1.2,3.5c0-2.3,0-4.6,0-7c0.2,0,0.3-0.1,0.5-0.1c0.9,0,1.8,0,2.7,0c0.4,0,0.8,0.1,1.2,0.2c1.5,0.4,1.9,1.7,1.7,2.9
		c-0.2,1.6-1.4,2.4-2.8,2.4c-0.4,0-0.7,0-1.1,0c-0.1,0.5-0.1,1-0.1,1.4s0,0.9,0,1.3c-0.5,0.1-2.9,0.2-4,0.1c-0.1-0.3-0.2-0.6-0.3-1
		c-0.1-0.3-0.2-0.7-0.3-1c-0.7,0-1.3,0-2,0C56.5,81.1,56.3,81.8,56.1,82.5z M63.3,77.8c0.4,0,0.8,0,1.2,0s0.7-0.5,0.7-1
		c0-0.4-0.2-0.7-0.6-0.8c-0.4-0.1-0.9-0.2-1.3-0.1C63.3,76.5,63.3,77.1,63.3,77.8z M57.7,76.7c-0.2,0.7-0.4,1.3-0.5,1.8
		c0.5,0.2,0.5,0.2,1,0C58,78,57.9,77.4,57.7,76.7z"/>
	<path class="st2" d="M30.3,82.4c-0.7,0-1.4,0-2,0c0,0-0.1,0-0.1-0.1c0,0,0,0,0-0.1s0-0.3,0-0.4c0-2.6,0-5.2,0-7.7
		c0,0,0-0.1,0.1-0.1c0.6,0,1.3,0,2,0c0.1,0.9,0,1.7,0,2.8c0.8-1,1.4-1.9,2.1-2.8c1.2,0,2.3,0,3.5,0c0.4,1,0.8,2,1.2,3.1
		C37.5,76,38,75,38.4,74c0.7,0,1.4,0,2.2,0c0,0.3-0.1,0.4-0.1,0.5c-0.7,1.4-1.3,2.8-2,4.2c-0.2,0.3-0.3,0.7-0.2,1.1c0,0.7,0,1.3,0,2
		c0,0.2,0,0.4,0,0.6c-0.7,0-1.4,0-2.1,0c0-0.2,0-0.4,0-0.5c0-0.7,0-1.5,0-2.2c0-0.2,0-0.5-0.1-0.7c-0.5-1.2-1.1-2.4-1.7-3.6
		c0-0.1-0.1-0.1-0.1-0.2c-0.1,0.1-0.2,0.1-0.3,0.2c-0.4,0.5-0.8,1.1-1.3,1.6c-0.2,0.3-0.2,0.5,0,0.8c0.8,1.3,1.5,2.6,2.3,3.9
		c0.1,0.2,0.2,0.4,0.4,0.7c-0.4,0.1-0.8,0.1-1.2,0.1s-0.7,0-1.1,0c-0.6-1.1-1.2-2.1-1.8-3.2c-0.5,0.4-0.8,0.7-0.8,1.4
		C30.4,81.2,30.3,81.8,30.3,82.4z"/>
	<path class="st2" d="M20.4,78.2c0-0.7,0.1-1.3,0.3-1.9c1-2.8,4.6-3,6.1-1.2c0.4,0.5,0.7,1,0.8,1.6c0.3,1.2,0.3,2.4-0.1,3.6
		c-0.5,1.4-1.5,2.2-3,2.4C23,82.8,21.8,82.3,21,81C20.6,80.1,20.4,79.2,20.4,78.2z M22.5,78.3c0.1,0.4,0.2,0.9,0.3,1.4
		c0.2,0.5,0.6,0.9,1.3,0.9c0.6,0,1-0.3,1.2-0.8c0.5-1,0.5-2,0.1-3.1c-0.1-0.2-0.3-0.4-0.4-0.6c-0.5-0.5-1.6-0.5-2,0.2
		C22.7,77,22.6,77.6,22.5,78.3z"/>
	<path class="st2" d="M47.4,78.3c0,0.9-0.2,1.7-0.6,2.5c-0.7,1.3-1.8,1.8-3.2,1.8s-2.4-0.6-3-1.9c-0.9-1.8-0.9-3.6,0.2-5.4
		c0.6-1,1.5-1.4,2.6-1.5c1.5-0.1,2.6,0.4,3.4,1.7c0.4,0.6,0.6,1.4,0.6,2.1C47.4,77.9,47.4,78.1,47.4,78.3z M42,78.4
		c0.1,0.4,0.2,0.9,0.4,1.4s0.7,0.9,1.3,0.9s1-0.4,1.2-0.9c0.1-0.3,0.2-0.7,0.3-1.1c0.1-0.7,0-1.4-0.3-2.1c-0.2-0.5-0.7-0.7-1.2-0.7
		c-0.6,0-0.9,0.2-1.2,0.7C42.2,77,42.1,77.6,42,78.4z"/>
	<path class="st2" d="M20.6,74.1c0,0.6,0,1.1,0,1.7c-0.3,0.2-0.7,0.1-1,0.1C19.3,76,18.9,76,18.5,76c0,2.1,0,4.2,0,6.3
		c-0.5,0.2-1.3,0.2-2.2,0.1c0-0.2,0-0.4,0-0.7c0-1.7,0-3.4,0-5.1c0-0.2,0-0.4,0-0.7c-0.7,0-1.4,0-2.1,0c-0.1-0.6,0-1.2,0-1.8
		C14.7,74,19.6,74,20.6,74.1z"/>
	<path class="st2" d="M48.9,80.8c0.5-0.4,1-0.7,1.5-1.1c0.1,0.2,0.2,0.4,0.3,0.5c0.2,0.2,0.3,0.3,0.5,0.4c0.4,0.2,0.7,0,0.9-0.4
		c0.1-0.2,0.1-0.5,0.1-0.8c0-1.6,0-3.1,0-4.7c0-0.2,0-0.4,0-0.7c0.7,0,1.4,0,2.1,0c0,0.2,0,0.3,0,0.5c0,1.8,0,3.5,0,5.3
		c0,0.4-0.1,0.8-0.2,1.1c-0.5,1.4-1.6,1.8-2.9,1.7c-0.9-0.1-1.7-0.6-2.1-1.4C49,81.1,48.9,80.9,48.9,80.8z"/>
	<path class="st2" d="M29.5,84.1c0.6,0,1.2,0,1.8,0.1c0.9,0.2,1.2,0.9,0.8,1.7C32,86,32,86.1,31.8,86.3c0.1,0.1,0.2,0.2,0.3,0.3
		c0.4,0.4,0.3,0.9,0.2,1.4c-0.2,0.4-0.5,0.7-0.9,0.7c-0.6,0-1.3,0-1.9,0C29.4,88.2,29.4,84.8,29.5,84.1z M30.3,88
		c0.4,0,0.7,0.1,1-0.1c0.3-0.1,0.4-0.3,0.4-0.6c0-0.3-0.2-0.4-0.4-0.5c-0.3-0.1-0.6-0.1-1,0C30.3,87.2,30.3,87.6,30.3,88z M30.3,86
		c0.4,0.1,0.7,0,0.9-0.1c0.2-0.1,0.3-0.4,0.2-0.6c-0.1-0.2-0.2-0.3-0.4-0.4c-0.2-0.1-0.5,0-0.7,0C30.3,85.3,30.3,85.7,30.3,86z"/>
	<path class="st2" d="M52.8,86.2c0-0.1-0.1-0.3-0.2-0.5c-0.1-0.5-0.1-0.9,0.3-1.3c0.3-0.4,0.8-0.4,1.2-0.2c0.4,0.2,0.6,0.7,0.4,1.1
		c-0.1,0.2-0.2,0.4-0.3,0.6s-0.3,0.3-0.5,0.5c0.3,0.3,0.6,0.6,0.9,1c0.2-0.4,0.4-0.8,0.5-1.2c0.2,0,0.4,0,0.7,0c0,0.6-0.3,1-0.6,1.5
		c0.2,0.1,0.4,0.2,0.6,0.4c0,0.2-0.1,0.4-0.1,0.6c-0.4,0-0.7-0.2-1-0.4c-0.2,0.1-0.4,0.2-0.6,0.3c-0.4,0.2-0.8,0.2-1.1,0.1
		c-0.7-0.2-1.2-1-0.9-1.7C52.3,86.8,52.5,86.5,52.8,86.2z M53.2,86.9c-0.4,0.5-0.4,0.8-0.1,1c0.3,0.3,0.5,0.3,0.9-0.1
		C53.7,87.6,53.5,87.3,53.2,86.9z M53.6,84.7c-0.4,0.4-0.5,0.5-0.2,1.1C54.1,85.3,54.2,85.1,53.6,84.7z"/>
	<path class="st2" d="M42.9,84.2c0.3,0,0.6,0,0.9,0c0.5,1,1,2.1,1.5,3.2c0-1.1,0-2.1,0-3.1c0.2-0.2,0.5-0.1,0.7-0.1
		c0.1,0.5,0.1,3.8,0,4.5c-0.2,0-0.5,0-0.8,0c-0.5-1-1-2-1.5-3h-0.1c0,0.5,0.1,1,0.1,1.5s0,1,0,1.5c-0.3,0-0.5,0-0.8,0
		C42.9,87.2,42.9,85.8,42.9,84.2z"/>
	<path class="st2" d="M68.7,87.4c0-1.1,0-2.1,0-3.2c0.2,0,0.4,0,0.7,0c0,1.5,0,3,0,4.5c-0.1,0-0.2,0-0.3,0c-0.2,0-0.3,0-0.6,0
		c-0.5-1-1-2-1.5-3.1c0,1,0,2,0,3.1c-0.3,0-0.5,0-0.7,0c-0.1-0.5-0.2-3.9,0-4.5c0.6-0.2,0.7-0.2,1,0.4c0.4,0.8,0.8,1.7,1.2,2.5
		C68.6,87.3,68.7,87.3,68.7,87.4z"/>
	<path class="st2" d="M36.7,86.5c0,0.6-0.1,1.1-0.4,1.6c-0.5,1-2.1,1-2.7,0.4s-0.7-1.4-0.7-2.1c0-0.3,0.1-0.7,0.2-1
		c0.3-0.8,0.9-1.1,1.6-1.2c0.7,0,1.3,0.3,1.6,1C36.7,85.5,36.7,86,36.7,86.5z M33.8,86.4c0.1,0.3,0.1,0.7,0.2,1
		c0.1,0.4,0.6,0.7,0.9,0.6c0.4,0,0.7-0.3,0.8-0.6c0.3-0.7,0.2-1.3-0.1-2c-0.2-0.4-0.4-0.5-0.8-0.5c-0.4,0-0.7,0.2-0.8,0.6
		C33.9,85.8,33.9,86.1,33.8,86.4z"/>
	<path class="st2" d="M49.4,87.1c-0.2,0-0.4,0-0.5-0.1c-0.2-0.2-0.2-0.4,0-0.7c0.5,0,0.9,0,1.4,0c0.1,0.3,0.1,0.7,0.1,1s0,0.6,0,0.9
		c-0.8,0.9-2,0.9-2.8,0c-0.9-1-0.8-3,0.3-3.8c0.6-0.4,1.8-0.5,2.3,0.3c-0.1,0.2-0.2,0.3-0.3,0.5c-0.2-0.1-0.3-0.1-0.4-0.2
		c-0.6-0.3-1.2-0.1-1.5,0.6c-0.2,0.5-0.2,1.1-0.1,1.6c0.2,0.7,0.9,1,1.6,0.7C49.5,87.6,49.5,87.3,49.4,87.1z"/>
	<path class="st2" d="M24.4,84.2c0.2,0,0.5,0,0.7,0c0,0.6,0,1.2,0,1.7h0.1c0.4-0.6,0.8-1.2,1.3-1.8c0.3,0,0.5,0,0.9,0
		c-0.4,0.6-0.8,1.2-1.2,1.8c0.2,0.5,0.5,0.9,0.7,1.3s0.5,0.8,0.7,1.3c-0.3,0.2-0.6,0.1-0.8,0.1c-0.3-0.6-0.7-1.2-1-1.8
		c-0.7,0.5-0.5,1.2-0.6,1.8c-0.3,0-0.5,0-0.7,0C24.3,88.2,24.3,84.9,24.4,84.2z"/>
	<path class="st2" d="M15.1,84.2c0.2,0,0.5,0,0.7,0c0,0.6,0,1.2,0,1.8h0.1c0.4-0.6,0.9-1.2,1.3-1.9c0.3,0,0.5,0,0.8,0
		c-0.1,0.2-0.1,0.3-0.2,0.4c-0.2,0.3-0.4,0.7-0.7,0.9c-0.3,0.3-0.2,0.6,0,0.9c0.3,0.5,0.6,1,0.8,1.5c0.1,0.2,0.2,0.4,0.3,0.7
		c-0.3,0.2-0.6,0.1-0.9,0.1c-0.3-0.6-0.7-1.2-1-1.9c-0.7,0.4-0.6,1.2-0.6,1.9c-0.3,0-0.5,0-0.7,0C15,88.2,14.9,84.9,15.1,84.2z"/>
	<path class="st2" d="M71.3,86c0.5,0,0.9,0,1.4,0c0,0.3,0,0.5,0,0.7c-0.5,0-1,0-1.5,0.1c0,0.4,0,0.7,0,1.1c0.6,0,1.1,0,1.7,0
		c0,0.3,0,0.5,0,0.8c-0.8,0-1.7,0-2.5,0c0-1.5,0-3,0-4.5c0.7-0.1,2-0.1,2.5,0c0,0.2,0,0.4,0,0.7c-0.3,0-0.6,0-0.8,0
		c-0.3,0-0.5,0-0.8,0C71.2,85.3,71.3,85.6,71.3,86z"/>
	<path class="st2" d="M73.7,88.2c0.2-0.2,0.3-0.4,0.4-0.5c0.3,0.1,0.5,0.3,0.8,0.3c0.2,0.1,0.5,0.1,0.7,0c0.3-0.1,0.4-0.6,0.1-0.8
		c-0.1-0.1-0.2-0.1-0.3-0.2c-0.3-0.1-0.6-0.3-0.9-0.4c-0.6-0.4-0.7-1.1-0.5-1.7s0.9-0.9,1.6-0.8c0.4,0.1,0.8,0.2,1,0.6
		c-0.1,0.1-0.2,0.3-0.3,0.5c-0.3-0.1-0.5-0.2-0.8-0.3c-0.1,0-0.3,0-0.4,0c-0.4,0.1-0.4,0.5-0.1,0.8c0.2,0.2,0.5,0.3,0.7,0.4
		c0.4,0.2,0.7,0.4,0.9,0.8c0.4,0.8,0,1.8-0.9,2C75,89,74.3,88.8,73.7,88.2z"/>
	<path class="st2" d="M80.1,84.7c-0.1,0.2-0.2,0.3-0.3,0.4c-0.4-0.1-0.7-0.2-1-0.2s-0.5,0.1-0.5,0.4c-0.1,0.3,0.1,0.4,0.3,0.5
		c0.2,0.1,0.5,0.2,0.7,0.3c0.4,0.2,0.8,0.4,0.9,0.9c0.2,0.7-0.2,1.6-0.9,1.7c-0.8,0.2-1.5,0.1-2-0.6c0.1-0.2,0.3-0.4,0.4-0.6
		c0.2,0.1,0.3,0.2,0.4,0.2c0.2,0.1,0.4,0.2,0.6,0.2c0.5,0,0.7-0.2,0.6-0.8c-0.3-0.2-0.7-0.3-1.1-0.5s-0.7-0.5-0.8-1
		c-0.2-0.9,0.6-1.7,1.5-1.6C79.3,84.1,79.8,84.2,80.1,84.7z"/>
	<path class="st2" d="M38.8,87.1c-0.3,0.6-0.5,1.1-0.7,1.6c-0.3,0-0.5,0-0.9,0c0.4-0.8,0.7-1.5,1.1-2.3c-0.3-0.7-0.7-1.4-1.1-2.2
		c0.3,0,0.6,0,0.9,0c0.2,0.5,0.4,1,0.7,1.5c0.4-0.5,0.4-1.1,0.8-1.5c0.3,0,0.5,0,0.8,0c-0.4,0.8-0.7,1.5-1.1,2.3
		c0.4,0.7,0.7,1.5,1.1,2.3c-0.3,0-0.6,0-0.9,0C39.3,88.2,39,87.7,38.8,87.1z"/>
	<path class="st2" d="M23.7,88.2c-1.1,1.1-2.5,0.8-3-0.6c-0.4-1-0.3-1.9,0.3-2.8c0.6-0.9,1.8-1,2.6-0.2c0,0.1-0.1,0.2-0.1,0.3
		c-0.1,0.1-0.1,0.2-0.2,0.3C23.1,85.1,23,85,22.8,85c-0.5-0.2-0.9,0-1.2,0.4c-0.3,0.6-0.4,1.3-0.1,1.9c0.3,0.7,0.9,0.9,1.5,0.5
		c0.1-0.1,0.2-0.1,0.3-0.2C23.4,87.8,23.6,88,23.7,88.2z"/>
	<path class="st2" d="M57.8,84.2c0.8,0,1.6,0,2.5,0c0,0.2,0,0.4,0.1,0.7c-0.6,0-1.1,0-1.7,0.1c0,0.4,0,0.7,0,1.1c0.4,0,0.9,0,1.3,0
		c0.2,0.3,0.2,0.5,0.1,0.7c-0.4,0.3-0.9,0-1.5,0.2c0,0.5,0,1,0,1.6c-0.3,0-0.5,0-0.7,0C57.7,88.2,57.7,85,57.8,84.2z"/>
	<path class="st2" d="M63.7,85c-0.4,0-0.7,0-1,0c-0.1-0.3-0.1-0.3-0.1-0.7c0.5-0.1,2.4-0.1,3,0c0,0.2,0,0.4,0,0.7
		c-0.3,0-0.7,0.1-1,0.1c-0.2,0.4-0.1,0.8-0.1,1.2c0,0.4,0,0.8,0,1.2c0,0.4,0,0.8,0,1.3c-0.3,0-0.6,0-0.9,0
		C63.7,87.5,63.7,86.3,63.7,85z"/>
	<path class="st2" d="M18.8,84.3c0.1,0,0.2-0.1,0.2-0.1c0.2,0,0.3,0,0.5,0c0.1,0.4,0.2,3.7,0,4.5c-0.2,0-0.5,0-0.8,0
		C18.8,87.2,18.8,85.8,18.8,84.3z"/>
	<path class="st2" d="M41.8,88.7c-0.1,0-0.2,0-0.4,0c-0.1,0-0.2,0-0.4,0c0-1.5,0-3,0-4.5c0.3,0,0.5,0,0.7,0
		C41.9,84.7,41.9,88.1,41.8,88.7z"/>
	<path class="st2" d="M61.1,84.2c0.3,0,0.5,0,0.8,0c0.1,1.5,0,3,0,4.4c-0.3,0.2-0.6,0.1-0.9,0.1C61.1,87.2,61.1,85.7,61.1,84.2z"/>
	<path class="st0" d="M40.8,18.6c0.2-0.7,0.5-1.4,0.7-2.2c-0.6-0.5-1.2-0.9-2-1.5c0.8,0,1.6,0,2.4,0c0.3-0.8,0.5-1.5,0.8-2.3
		c0.4,0.7,0.5,1.5,0.8,2.3c0.8,0,1.5,0,2.3,0V15c-0.6,0.4-1.2,0.9-1.8,1.4c0.2,0.8,0.5,1.5,0.7,2.2c0,0-0.1,0-0.1,0.1
		c-0.6-0.4-1.3-0.9-1.9-1.3C42.1,17.7,41.5,18.2,40.8,18.6C40.9,18.6,40.8,18.6,40.8,18.6z"/>
	<path class="st0" d="M52.8,17.3c-0.7,0.5-1.3,0.9-2,1.4c0.3-0.9,0.5-1.6,0.8-2.4c-0.6-0.5-1.2-0.9-1.8-1.3v-0.1c0.7,0,1.4,0,2.2,0
		c0.3-0.7,0.5-1.5,0.8-2.3c0.4,0.8,0.5,1.5,0.9,2.3c0.7,0,1.5,0,2.2,0V15c-0.6,0.5-1.2,0.9-1.8,1.4c0.2,0.8,0.5,1.5,0.7,2.2
		l-0.1,0.1C54.1,18.2,53.5,17.7,52.8,17.3z"/>
	<path class="st0" d="M22.8,12.5c0.3,0.8,0.5,1.6,0.8,2.3c0.8,0,1.5,0,2.5,0c-0.7,0.6-1.4,1-2,1.5c0.2,0.8,0.5,1.5,0.8,2.4
		c-0.7-0.5-1.4-1-2-1.5c-0.6,0.5-1.3,0.9-2,1.4c0.3-0.9,0.5-1.6,0.7-2.4c-0.7-0.5-1.3-0.9-2-1.5c0.9,0,1.7,0,2.4,0
		C22.3,14.1,22.6,13.3,22.8,12.5z"/>
	<path class="st0" d="M72.8,12.5c0.3,0.9,0.5,1.6,0.8,2.4c0.8,0,1.6,0,2.5,0c-0.7,0.5-1.3,1-2,1.5c0.2,0.7,0.5,1.5,0.7,2.4
		c-0.7-0.5-1.3-0.9-2-1.4c-0.6,0.5-1.3,0.9-2,1.4c0.3-0.9,0.5-1.6,0.8-2.4c-0.6-0.5-1.2-0.9-2-1.5c0.9,0,1.6,0,2.4,0
		C72.2,14.1,72.5,13.3,72.8,12.5z"/>
	<path class="st0" d="M30.8,18.5c0.2-0.7,0.5-1.4,0.7-2.1c-0.5-0.6-1.3-0.9-1.9-1.5c0.8,0,1.5,0,2.3,0c0.5-0.7,0.4-1.6,0.9-2.3
		c0.3,0.8,0.5,1.5,0.8,2.3c0.8,0,1.5,0,2.3,0V15c-0.6,0.4-1.2,0.9-1.8,1.4c0.2,0.7,0.5,1.5,0.7,2.4c-0.7-0.5-1.3-0.9-2-1.4
		C32.2,17.7,31.5,18.2,30.8,18.5C30.9,18.6,30.9,18.5,30.8,18.5z"/>
	<path class="st0" d="M60.9,18.5c0.2-0.7,0.4-1.4,0.7-2.1c-0.5-0.6-1.3-0.9-1.9-1.5c0.8,0,1.5,0,2.3,0c0.4-0.7,0.5-1.5,0.9-2.3
		c0.3,0.8,0.5,1.5,0.7,2.3c0.8,0,1.5,0,2.3,0V15c-0.6,0.4-1.2,0.9-1.8,1.3c0,0.8,0.5,1.5,0.6,2.3c-0.8-0.3-1.3-0.9-2-1.3
		C62.2,17.7,61.6,18.2,60.9,18.5C60.9,18.6,60.9,18.5,60.9,18.5z"/>
	<path class="st0" d="M54.5,61.4c-0.6-0.1-0.9-0.3-1.1-0.8c-0.4-1.1-0.7-2.2-0.9-3.4s-0.3-2.3-0.5-3.5c-0.1-0.5-0.1-0.9-0.1-1.4
		c0-1.1-0.2-2.3-0.1-3.4c0.1-0.7,0-1.5,0-2.2c0-1.8,0-3.6,0-5.3c0-1.6,0.2-3.2,0.6-4.8c0.2-0.8,0.6-1.6,1.1-2.3
		c0.3-0.4,0.6-0.7,1-0.9c0.7,0.3,1.1,0.8,1.4,1.4c0.5,0.9,0.7,1.9,0.9,2.9c0.2,1.2,0.3,2.5,0.3,3.7c0,0.5,0.1,1,0.1,1.5
		c0,1.8-0.1,3.6-0.1,5.4c0,0.9,0,1.9,0,2.8c-0.1,1.4-0.2,2.7-0.4,4.1c-0.1,1.3-0.3,2.6-0.7,3.8C55.8,60,55.2,60.8,54.5,61.4z"/>
	<path class="st0" d="M70.2,76.9c0.2,0.6,0.3,1.1,0.5,1.7c-0.4,0-0.7,0-1.1,0C69.8,78,69.9,77.4,70.2,76.9
		C70.1,76.9,70.1,76.9,70.2,76.9z"/>
	<path class="st0" d="M63.3,77.8c0-0.6,0-1.2,0-1.9c0.4-0.1,0.9-0.1,1.3,0.1c0.4,0.1,0.6,0.4,0.6,0.8c0,0.5-0.3,0.9-0.7,1
		C64.1,77.8,63.7,77.8,63.3,77.8z"/>
	<path class="st0" d="M57.7,76.7c0.2,0.7,0.3,1.3,0.5,1.8c-0.5,0.2-0.5,0.2-1,0C57.3,77.9,57.5,77.4,57.7,76.7z"/>
	<path class="st0" d="M22.5,78.3c0.1-0.7,0.2-1.4,0.5-1.9c0.4-0.7,1.6-0.7,2-0.2c0.2,0.2,0.3,0.4,0.4,0.6c0.4,1,0.4,2.1-0.1,3.1
		c-0.2,0.5-0.6,0.8-1.2,0.8s-1.1-0.4-1.3-0.9C22.7,79.2,22.6,78.7,22.5,78.3z"/>
	<path class="st0" d="M42,78.4c0.1-0.7,0.1-1.3,0.4-1.8c0.3-0.5,0.7-0.7,1.2-0.7s1,0.2,1.2,0.7c0.3,0.7,0.5,1.3,0.3,2.1
		c-0.1,0.4-0.1,0.8-0.3,1.1c-0.2,0.5-0.6,0.9-1.2,0.9c-0.7,0-1.1-0.3-1.3-0.9C42.2,79.3,42.1,78.7,42,78.4z"/>
	<path class="st0" d="M30.3,88c0-0.4,0-0.8,0-1.2c0.3-0.1,0.6-0.1,1,0c0.2,0.1,0.4,0.2,0.4,0.5s-0.1,0.5-0.4,0.6
		C31,88.1,30.7,88.1,30.3,88z"/>
	<path class="st0" d="M30.3,86c0-0.4,0-0.7,0-1.1c0.3,0,0.5,0,0.7,0s0.3,0.2,0.4,0.4c0.1,0.2,0,0.4-0.2,0.6
		C31,86.1,30.7,86.1,30.3,86z"/>
	<path class="st0" d="M53.2,86.9c0.3,0.3,0.6,0.7,0.8,1c-0.4,0.3-0.6,0.3-0.9,0.1C52.7,87.7,52.8,87.4,53.2,86.9z"/>
	<path class="st0" d="M53.6,84.7c0.5,0.3,0.5,0.6-0.2,1.1C53.1,85.2,53.2,85.1,53.6,84.7z"/>
	<path class="st0" d="M33.8,86.4c0.1-0.3,0.1-0.7,0.3-1c0.1-0.4,0.4-0.5,0.8-0.6c0.4,0,0.7,0.2,0.8,0.5c0.3,0.7,0.3,1.3,0.1,2
		c-0.1,0.4-0.4,0.6-0.8,0.6c-0.3,0-0.8-0.3-0.9-0.6C33.9,87.1,33.9,86.8,33.8,86.4z"/>
</g>
</svg>
