<?xml version="1.0" encoding="utf-8"?>
<!-- Generator: Adobe Illustrator 27.8.1, SVG Export Plug-In . SVG Version: 6.00 Build 0)  -->
<svg version="1.1" id="レイヤー_1" xmlns="http://www.w3.org/2000/svg" xmlns:xlink="http://www.w3.org/1999/xlink" x="0px"
	 y="0px" viewBox="0 0 90 90" style="enable-background:new 0 0 90 90;" xml:space="preserve">
<style type="text/css">
	.st0{fill:#1B2088;}
	.st1{fill:none;stroke:#000000;stroke-miterlimit:10;}
	.st2{fill:#FFFFFF;}
</style>
<g>
	<path class="st0" d="M10.7,2.4c22.9,0,45.8,0,68.6,0c0,28.4,0,56.9,0,85.3c-22.9,0-45.8,0-68.6,0C10.7,59.2,10.7,30.8,10.7,2.4z
		 M11.7,20.6c22.2,0,44.4,0,66.6,0c0.2,0,0.3,0,0.5,0c0,0,0,0,0.1,0c0,0,0,0,0.1-0.1c0-0.1,0-0.3,0-0.5c0-5.2,0-10.4,0-15.7
		c0-0.2,0-0.3,0-0.5c0-0.1-0.1-0.1-0.1-0.2c-0.2,0-0.3,0-0.5,0c-0.2,0.9-0.8,1.4-1.6,1.8c-1.9,0.8-3.9,0.8-5.9,0
		c-0.5-0.2-0.9-0.5-1.2-0.9c-0.2-0.2-0.3-0.5-0.4-0.8c-0.1,0-0.3,0-0.4,0c-0.2,0.7-0.5,1.2-1.1,1.5c-0.6,0.3-1.1,0.6-1.7,0.7
		c-1.4,0.3-2.8,0.2-4.2-0.3C61,5.3,60.2,4.8,60,3.8c0,0,0-0.1-0.1-0.1s-0.3,0-0.5,0C59.2,4.5,58.7,5,58,5.3c-1.6,0.8-3.3,0.9-5,0.5
		c-1.2-0.3-2.2-0.8-2.7-2.1c-0.2,0-0.3,0-0.4,0c-0.3,1-1,1.5-1.8,1.8c-0.5,0.2-1,0.3-1.5,0.4C45.2,6.1,44,6,42.7,5.6
		c-0.9-0.4-1.7-0.8-2-1.9c-0.2,0-0.4,0-0.5,0c-0.1,0.7-0.5,1.1-1,1.4c-0.2,0.1-0.5,0.3-0.7,0.4c-1.4,0.6-2.9,0.7-4.3,0.3
		c-1.3-0.3-2.5-0.7-2.9-2.2c-0.2,0-0.3,0-0.4,0C30.4,4.7,30,5.1,29,5.5c-1.7,0.7-3.4,0.7-5.1,0.1c-1-0.3-1.8-0.8-2.1-2
		c-0.1,0-0.2,0-0.3,0c-0.1,0-0.1,0-0.2,0c-0.3,0.8-0.6,1.2-1.4,1.6c-1.6,0.8-3.3,0.9-5,0.5c-0.8-0.2-1.5-0.4-2-1
		c-0.3-0.3-0.5-0.7-0.7-1.1c-0.1,0-0.2,0-0.4,0C11.7,9.3,11.7,14.9,11.7,20.6z M12,23.6c0,9.9,0,19.7,0,29.5c1,0.5,1.9,0.9,3,1.4
		c0-0.3,0-0.5,0-0.8c0-2.5,0-5,0-7.5c0-0.3,0.1-0.7,0.2-1c0.3-0.9,0.6-1.7,0.9-2.6c0-0.1,0.1-0.2,0.2-0.5c1,4.9,1.9,9.7,2.9,14.4
		c1.1,0.5,2,1,3,1.5s2,1,3,1.5c0.1-0.8,0.1-35.4,0-35.9c-0.5-0.1-2.3-0.1-2.9,0c0,0.2,0,0.5,0,0.7c0,10.7,0,21.4,0,32
		c0,0.2,0,0.5,0,0.7c-0.4-1.4-0.7-2.8-0.9-4.2c-0.4-2.2-0.9-4.4-1.3-6.5c-0.7-3.3-1.3-6.5-2-9.8c0-0.2,0-0.4,0.1-0.6
		c0.9-2.9,1.7-5.9,2.6-8.8c0.4-1.2,0.7-2.4,1-3.7c-1.1,0-2.1,0-3.2,0c-0.6,1.9-1.1,3.8-1.7,5.7c-0.6,1.9-1.1,3.7-1.8,5.6
		c0-3.8,0-7.5,0-11.3C13.9,23.6,13,23.6,12,23.6z M57.6,41.8c0-2.7,0.1-5.4-0.2-8.1c-0.2-1.7-0.4-3.4-0.8-5.1
		c-0.4-1.4-0.9-2.8-1.8-3.9c-0.5-0.7-1.2-1.2-2.1-1.5c-0.5-0.2-1-0.2-1.4,0c-1.1,0.4-1.8,1.2-2.4,2.1c-0.8,1.2-1.2,2.6-1.5,4
		s-0.6,2.9-0.7,4.3c-0.1,1.4-0.3,2.9-0.3,4.3c-0.1,3.9-0.1,7.7,0.1,11.6c0.1,1.5,0.1,3.1,0.2,4.6c0,0.7,0.1,1.4,0.2,2.1
		c0.1,1.2,0.3,2.4,0.5,3.7c0.2,1.6,0.6,3.2,1.2,4.8c0.3,0.7,0.7,1.3,1.2,1.9c0.8,0.8,2.2,0.8,2.8,0.2c0.4-0.4,0.9-0.8,1.2-1.3
		c1.3-1.7,2.1-3.6,2.6-5.6c0.7-2.7,1-5.5,1.2-8.3c0.1-1.5,0.1-3,0.1-4.5C57.6,45.3,57.6,43.5,57.6,41.8z M36.7,23.7
		c-0.1,0.5-0.1,41,0,41.6c0.9,0.4,1.8,0.9,2.8,1.3c0-0.3,0-0.5,0-0.7c0-3.6,0-7.2,0-10.8c0-0.3,0-0.6,0.1-0.9
		c0.4-1.5,0.7-3.1,1.1-4.6c0.4,1.6,0.6,3.2,0.9,4.7c0.3,1.6,0.5,3.2,0.7,4.8s0.5,3.2,0.7,4.8s0.5,3.2,0.7,4.8
		c1.1,0.7,2.2,0.7,3.2-0.1c0-0.3-0.1-0.5-0.1-0.8c-0.3-1.9-0.6-3.9-0.9-5.8c-0.3-1.7-0.6-3.5-0.9-5.2c-0.2-1.5-0.5-3-0.7-4.5
		c-0.3-1.8-0.6-3.7-0.9-5.5c-0.3-1.6-0.5-3.2-0.8-4.8c-0.1-0.4-0.1-0.7,0-1.1c0.2-0.8,0.4-1.7,0.6-2.5c0.5-2.3,1-4.6,1.5-6.9
		c0.5-2.2,0.9-4.3,1.4-6.5c0.1-0.4,0.3-0.8,0.2-1.2c-0.8-0.1-2.8-0.1-3.2,0C42,29,40.9,34.3,39.5,39.5c0-5.3,0-10.5,0-15.8
		C38.6,23.7,37.7,23.7,36.7,23.7z M63.5,54.2c-0.1,0-0.3-0.1-0.4-0.1c-0.6-0.2-0.8-0.7-0.9-1.3c-0.5-2-0.7-4.1-0.7-6.2
		c0-7.5,0-14.9,0-22.4c0-0.2,0-0.3,0-0.5c-0.5,0-1,0-1.5,0s-0.9,0-1.4,0c0,0.3,0,0.5,0,0.8c0,7.1,0,14.2,0,21.3c0,1.6,0,3.1,0.1,4.7
		c0,0.9,0.1,1.8,0.1,2.7c0.1,1.5,0.3,3,0.7,4.5c0.2,1,0.6,2,1.2,2.9c0.7,1,1.7,1.3,2.7,0.8c0.6-0.3,1.1-0.7,1.5-1.1
		c1.3-1.3,2-3,2.5-4.7c0.7-2.6,0.9-5.2,1-7.8c0.1-2,0-4,0-6c0-5.8,0-11.5,0-17.3c0-0.3,0-0.5,0-0.7c-0.7-0.2-2.4-0.1-2.8,0.1
		c0,0.1,0,0.3,0,0.4c0,7,0,14,0,21.1c0,1.3,0.1,2.5-0.1,3.8c-0.1,1-0.2,2.1-0.5,3.1C64.6,53,64.2,53.7,63.5,54.2z M34.3,34.4
		c0.1-0.1,0.1-0.2,0.2-0.4c0.4-1.7,0.9-3.3,1.3-5c0.1-0.2,0.1-0.5,0-0.8c-0.3-1.2-0.7-2.5-1.4-3.5c-0.4-0.6-0.8-1.1-1.4-1.4
		c-0.3-0.2-0.7-0.4-1.1-0.3c-0.7,0.1-1.4,0.4-1.9,1c-1.2,1.3-1.9,3-2.3,4.7c-0.3,1.1-0.4,2.1-0.6,3.2c-0.2,1.2-0.4,2.4-0.6,3.6
		c-0.1,0.6-0.1,1.2-0.1,1.8c-0.1,1.4-0.2,2.8-0.2,4.2c0,1,0,2,0.1,3c0,1.3,0.1,2.5,0.2,3.8c0,0.1,0,0.2,0,0.3
		c0.1,0.8,0.2,1.6,0.3,2.4c0.1,0.8,0.1,1.6,0.2,2.4c0.2,1.1,0.4,2.1,0.6,3.2c0.3,1.2,0.7,2.4,1.3,3.5c0.2,0.4,0.4,0.7,0.6,1.1
		c0.5,1,1.2,1.8,2,2.5c0.2,0.1,0.4,0.2,0.6,0.3c1,0.2,1.9-0.2,2.5-1c0.6-0.9,1-1.8,1.3-2.9c0.1-0.3,0.1-0.6,0-0.9
		c-0.2-1.1-0.5-2.1-0.7-3.2c-0.2-1-0.5-2-0.7-3c-0.1,0.2-0.2,0.2-0.2,0.3c-0.2,0.6-0.3,1.2-0.6,1.7c-0.2,0.4-0.4,0.8-0.7,1.2
		c-0.4,0.5-1,0.5-1.5,0c-0.1-0.1-0.2-0.2-0.3-0.4c-0.3-0.5-0.6-1-0.8-1.5c-0.4-0.9-0.6-1.9-0.7-2.9c-0.1-1.3-0.4-2.5-0.5-3.8
		c-0.1-1.2-0.1-2.3-0.2-3.5c0-0.9,0-1.7,0-2.6c0-2.3,0-4.5,0.4-6.8c0.2-0.8,0.2-1.6,0.6-2.4c0.4-0.8,0.9-1.5,1.9-1.9
		c0.7,0.3,1,0.9,1.2,1.5C33.7,32.6,34,33.5,34.3,34.4z M72.2,29.5c0,0.1,0.1,0.1,0.1,0.1c0,8.8,0,17.5,0,26.3V56c0,0,0,0,0,0.1
		c0,0,0,0,0.1,0c0.9-0.5,1.9-0.9,2.8-1.4c0-8.5,0-17,0-25.4c1.1-0.3,2.3-0.2,3.3-0.4c0.1-1,0.1-4.8,0-5.3c-3.2,0-6.4,0-9.6,0
		c-0.1,0.7-0.1,5.7,0,6.2C70.1,29.8,71.1,29.6,72.2,29.5z M71.1,78.6L71.1,78.6c-0.5-1.2-0.9-2.3-1.2-3.5c-0.4-1.2-0.7-2.4-1.1-3.5
		c-0.8,0-1.5,0-2.2,0c-0.3,0.9-0.6,1.9-0.9,2.8s-0.6,1.8-0.9,2.8C64.5,78.1,64.2,79,64,80c0.7,0,1.4,0,2,0c0.3-0.6,0.3-1.4,0.7-2
		c0.7,0,1.3,0,2,0c0.2,0.7,0.4,1.3,0.6,2c1.3,0,2.6,0.1,3.9,0c0-1.5,0-3,0-4.5c0.4,0.9,0.8,1.6,1.2,2.3c0.4,0.7,0.8,1.5,1.2,2.2
		c0.7,0,1.3,0.1,1.9,0c0.1-0.6,0.1-7.8,0-8.4c-0.6,0-1.3,0-2,0c0,1.4,0,2.8,0,4.2h-0.1c-0.8-1.4-1.5-2.8-2.3-4.2c-0.3,0-0.7,0-1,0
		s-0.7-0.1-1,0.1C71.1,73.9,71.1,76.3,71.1,78.6z M53.6,80c0.2-0.7,0.4-1.3,0.6-2c0.7,0,1.3,0,2,0c0.1,0.4,0.2,0.7,0.3,1
		s0.2,0.7,0.3,1c1.1,0.1,3.5,0.1,4-0.1c0-0.4,0-0.9,0-1.3s-0.1-0.9,0.1-1.4c0.4,0,0.7,0,1.1,0c1.4-0.1,2.6-0.8,2.8-2.4
		c0.2-1.2-0.3-2.5-1.7-2.9c-0.4-0.1-0.8-0.2-1.2-0.2c-0.9,0-1.8,0-2.7,0c-0.1,0-0.3,0-0.5,0.1c0,2.4,0,4.7,0,7
		c-0.5-1.2-0.8-2.3-1.2-3.5s-0.7-2.4-1.2-3.6c-0.8,0-1.5,0-2.2,0c-0.9,2.8-1.7,5.6-2.6,8.4C52.2,80,52.9,80,53.6,80z M27.8,79.9
		c0-0.7,0-1.3,0-1.9s0.3-1,0.8-1.4c0.6,1.1,1.2,2.2,1.8,3.2c0.4,0,0.7,0,1.1,0s0.8,0.1,1.2-0.1c-0.1-0.3-0.2-0.5-0.4-0.7
		c-0.8-1.3-1.5-2.6-2.3-3.9c-0.2-0.3-0.2-0.5,0-0.8c0.4-0.5,0.8-1.1,1.3-1.6c0.1-0.1,0.2-0.1,0.3-0.2c0.1,0.1,0.1,0.1,0.1,0.2
		c0.6,1.2,1.1,2.4,1.7,3.6c0.1,0.2,0.1,0.5,0.1,0.7c0,0.7,0,1.5,0,2.2c0,0.2,0,0.3,0,0.5c0.7,0,1.4,0,2.1,0c0-0.2,0-0.4,0-0.6
		c0-0.7,0-1.3,0-2c0-0.4,0.1-0.7,0.2-1.1c0.7-1.4,1.3-2.8,2-4.2c0.1-0.1,0.1-0.3,0.2-0.5c-0.8,0-1.5,0-2.2,0c-0.4,1-0.8,2-1.3,3.1
		c-0.4-1.1-0.8-2.1-1.2-3.1c-1.2,0-2.3,0-3.5,0c-0.7,0.9-1.3,1.8-2.1,2.8c0-1,0-1.9,0-2.8c-0.7,0-1.4,0-2,0c0,0.1-0.1,0.1-0.1,0.1
		c0,2.6,0,5.2,0,7.7c0,0.1,0,0.3,0,0.4c0,0,0,0,0,0.1c0,0,0,0,0.1,0.1C26.5,79.9,27.1,79.9,27.8,79.9z M17.9,75.7
		c0,1,0.1,1.9,0.6,2.7c0.8,1.3,2,1.8,3.5,1.7c1.5-0.1,2.5-1,3-2.4c0.4-1.2,0.4-2.4,0.1-3.6c-0.2-0.6-0.4-1.1-0.8-1.6
		c-1.5-1.8-5.1-1.6-6.1,1.2C18,74.4,17.9,75,17.9,75.7z M44.9,75.8c0-0.2,0-0.4,0-0.6c-0.1-0.7-0.2-1.5-0.6-2.1
		c-0.8-1.3-1.9-1.8-3.4-1.7c-1.1,0.1-2,0.5-2.6,1.5c-1.1,1.7-1.1,3.6-0.2,5.4c0.6,1.2,1.7,1.8,3,1.9c1.4,0,2.5-0.5,3.2-1.8
		C44.7,77.5,44.9,76.7,44.9,75.8z M18.1,71.6c-1.1-0.1-5.9-0.1-6.4,0c0,0.6-0.1,1.2,0,1.8c0.7,0,1.3,0,2.1,0c0,0.3,0,0.5,0,0.7
		c0,1.7,0,3.4,0,5.1c0,0.2,0,0.5,0,0.7c0.8,0.1,1.7,0.1,2.2-0.1c0-2.1,0-4.2,0-6.3c0.4,0,0.7-0.1,1.1-0.1c0.3-0.1,0.7,0.1,1-0.1
		C18.1,72.7,18.1,72.1,18.1,71.6z M46.4,78.3c0.1,0.2,0.1,0.3,0.1,0.4c0.5,0.8,1.2,1.3,2.1,1.4c1.3,0.1,2.4-0.3,2.9-1.7
		c0.1-0.4,0.2-0.8,0.2-1.1c0-1.8,0-3.5,0-5.3c0-0.1,0-0.3,0-0.5c-0.7,0-1.4,0-2.1,0c0,0.3,0,0.5,0,0.7c0,1.6,0,3.1,0,4.7
		c0,0.3,0,0.5-0.1,0.8c-0.1,0.4-0.5,0.6-0.9,0.4c-0.2-0.1-0.4-0.3-0.5-0.4s-0.2-0.3-0.3-0.5C47.3,77.6,46.9,77.9,46.4,78.3z
		 M27,81.6c-0.1,0.7-0.1,4.1,0,4.6c0.6,0,1.3,0,1.9,0c0.4,0,0.8-0.3,0.9-0.7c0.2-0.5,0.2-1-0.2-1.4c-0.1-0.1-0.2-0.2-0.3-0.3
		c0.1-0.2,0.2-0.3,0.3-0.4c0.4-0.8,0.1-1.6-0.8-1.7C28.3,81.7,27.7,81.7,27,81.6z M50.3,83.7c-0.3,0.4-0.5,0.7-0.6,1
		c-0.3,0.7,0.1,1.5,0.9,1.7c0.4,0.1,0.8,0.1,1.1-0.1c0.2-0.1,0.4-0.2,0.6-0.3c0.3,0.2,0.6,0.4,1,0.4c0-0.2,0.1-0.4,0.1-0.6
		c-0.2-0.1-0.4-0.3-0.6-0.4c0.2-0.5,0.6-0.9,0.6-1.5c-0.2,0-0.5,0-0.7,0c-0.2,0.4-0.3,0.7-0.5,1.2c-0.3-0.4-0.6-0.7-0.9-1
		c0.2-0.2,0.4-0.3,0.5-0.5s0.3-0.4,0.3-0.6c0.1-0.4-0.1-0.9-0.4-1.1c-0.4-0.2-0.9-0.2-1.2,0.2c-0.3,0.4-0.4,0.8-0.3,1.3
		C50.2,83.4,50.2,83.5,50.3,83.7z M40.4,81.7c0,1.5,0,3,0,4.5c0.3,0,0.5,0,0.8,0c0-0.5,0-1,0-1.5s-0.1-1-0.1-1.5h0.1
		c0.5,1,1,2,1.5,3c0.3,0,0.6,0,0.8,0c0.1-0.7,0.1-4,0-4.5c-0.2,0-0.4-0.1-0.7,0.1c0,1,0,2,0,3.1c-0.5-1.1-1-2.2-1.5-3.2
		C40.9,81.7,40.7,81.7,40.4,81.7z M66.2,84.9c-0.1-0.1-0.1-0.1-0.1-0.2c-0.4-0.8-0.8-1.7-1.2-2.5c-0.3-0.6-0.4-0.6-1-0.4
		c-0.1,0.6-0.1,4,0,4.5c0.2,0,0.4,0,0.7,0c0-1,0-2,0-3.1c0.5,1.1,1,2.1,1.5,3.1c0.2,0,0.4,0,0.6,0c0.1,0,0.2,0,0.3,0
		c0-1.5,0-3,0-4.5c-0.3,0-0.5,0-0.7,0C66.2,82.8,66.2,83.8,66.2,84.9z M34.2,84c0-0.5,0-0.9-0.3-1.4c-0.3-0.7-0.9-1-1.6-1
		c-0.7,0-1.4,0.4-1.6,1.2c-0.1,0.3-0.2,0.7-0.2,1c0,0.8,0.1,1.5,0.7,2.1c0.6,0.7,2.1,0.7,2.7-0.4C34.1,85,34.3,84.5,34.2,84z
		 M46.9,84.6c0.1,0.3,0.1,0.6,0,0.8c-0.7,0.3-1.4,0-1.6-0.7c-0.1-0.5-0.1-1.1,0.1-1.6c0.3-0.6,0.8-0.9,1.5-0.6
		c0.1,0.1,0.2,0.1,0.4,0.2c0.1-0.2,0.2-0.4,0.3-0.5c-0.5-0.8-1.7-0.7-2.3-0.3c-1.2,0.9-1.2,2.9-0.3,3.8c0.8,0.8,2,0.8,2.8,0
		c0-0.3,0-0.6,0-0.9s0.1-0.7-0.1-1c-0.5,0-0.9,0-1.4,0c-0.1,0.3-0.1,0.5,0,0.7C46.5,84.5,46.7,84.5,46.9,84.6z M21.9,81.7
		c-0.1,0.7-0.1,4,0,4.5c0.2,0,0.4,0,0.7,0c0.1-0.7-0.1-1.4,0.6-1.8c0.3,0.6,0.7,1.2,1,1.8c0.3,0,0.6,0.1,0.8-0.1
		c-0.2-0.4-0.5-0.8-0.7-1.3c-0.2-0.4-0.5-0.9-0.7-1.3c0.4-0.6,0.8-1.2,1.2-1.8c-0.4,0-0.6,0-0.9,0c-0.4,0.6-0.8,1.2-1.3,1.8h-0.1
		c0-0.6,0-1.1,0-1.7C22.4,81.7,22.2,81.7,21.9,81.7z M12.6,81.7c-0.1,0.7-0.1,4,0,4.5c0.2,0,0.4,0,0.7,0c0-0.7-0.1-1.4,0.6-1.9
		c0.3,0.6,0.7,1.3,1,1.9c0.3,0,0.6,0.1,0.9-0.1c-0.1-0.2-0.2-0.4-0.3-0.6c-0.3-0.5-0.5-1-0.8-1.5c-0.2-0.3-0.2-0.6,0-0.9
		c0.3-0.3,0.5-0.6,0.7-0.9c0.1-0.1,0.1-0.2,0.2-0.4c-0.3,0-0.5,0-0.8,0c-0.4,0.6-0.9,1.2-1.3,1.9h-0.1c0-0.6,0-1.2,0-1.8
		C13,81.7,12.8,81.7,12.6,81.7z M68.8,83.5c0-0.4-0.1-0.8,0.2-1c0.3,0,0.5,0,0.8,0s0.5,0,0.8,0c0-0.3,0-0.5,0-0.7
		c-0.5-0.1-1.9-0.1-2.5,0c0,1.5,0,2.9,0,4.5c0.9,0,1.7,0,2.5,0c0-0.3,0-0.5,0-0.8c-0.6,0-1.1,0-1.7,0c0-0.4,0-0.7,0-1.1
		c0.5,0,1,0,1.5-0.1c0-0.3,0-0.5,0-0.7C69.8,83.5,69.3,83.5,68.8,83.5z M71.2,85.7c0.6,0.7,1.3,0.8,2,0.6c0.8-0.2,1.3-1.2,0.9-2
		c-0.2-0.4-0.6-0.6-0.9-0.8c-0.3-0.1-0.5-0.2-0.7-0.4c-0.3-0.2-0.3-0.6,0.1-0.8c0.1-0.1,0.3-0.1,0.4,0c0.2,0.1,0.5,0.2,0.8,0.3
		c0.1-0.1,0.2-0.3,0.3-0.5c-0.3-0.4-0.6-0.5-1-0.6c-0.6-0.1-1.3,0.2-1.6,0.8c-0.3,0.6-0.1,1.3,0.5,1.7c0.3,0.2,0.6,0.3,0.9,0.4
		c0.1,0.1,0.2,0.1,0.3,0.2c0.3,0.2,0.3,0.7-0.1,0.8c-0.2,0.1-0.5,0.1-0.7,0c-0.3-0.1-0.5-0.2-0.8-0.3C71.5,85.3,71.3,85.5,71.2,85.7
		z M77.6,82.2c-0.3-0.5-0.8-0.6-1.2-0.7c-0.9-0.1-1.6,0.8-1.5,1.6c0.1,0.5,0.4,0.8,0.8,1s0.7,0.4,1.1,0.5c0.1,0.6-0.1,0.9-0.6,0.8
		c-0.2,0-0.4-0.1-0.6-0.2c-0.1-0.1-0.3-0.1-0.4-0.2c-0.2,0.2-0.3,0.4-0.4,0.6c0.6,0.7,1.3,0.8,2,0.6c0.8-0.2,1.1-1,0.9-1.7
		c-0.1-0.5-0.5-0.7-0.9-0.9c-0.2-0.1-0.5-0.2-0.7-0.3c-0.2-0.1-0.4-0.3-0.3-0.5c0.1-0.3,0.3-0.4,0.5-0.4c0.3,0,0.6,0.1,1,0.2
		C77.3,82.6,77.4,82.4,77.6,82.2z M36.3,84.6c0.3,0.6,0.5,1.2,0.8,1.7c0.3,0,0.6,0,0.9,0c-0.4-0.8-0.7-1.5-1.1-2.3
		c0.3-0.7,0.7-1.5,1.1-2.3c-0.3,0-0.6,0-0.8,0c-0.3,0.5-0.4,1-0.8,1.5c-0.3-0.6-0.5-1.1-0.7-1.5c-0.3,0-0.6,0-0.9,0
		c0.4,0.8,0.7,1.5,1.1,2.2c-0.4,0.8-0.7,1.5-1.1,2.3c0.3,0,0.6,0,0.9,0C35.7,85.7,36,85.2,36.3,84.6z M21.2,85.7
		c-0.1-0.2-0.3-0.3-0.4-0.5c-0.1,0.1-0.2,0.1-0.3,0.2c-0.6,0.4-1.2,0.2-1.5-0.5c-0.3-0.6-0.2-1.3,0.1-1.9c0.2-0.4,0.7-0.6,1.2-0.4
		c0.2,0.1,0.3,0.1,0.5,0.2c0.1-0.1,0.2-0.2,0.2-0.3c0.1-0.1,0.1-0.2,0.1-0.3c-0.8-0.8-2-0.7-2.6,0.2c-0.6,0.9-0.7,1.8-0.3,2.8
		C18.7,86.5,20.1,86.8,21.2,85.7z M55.3,81.7c-0.1,0.8-0.1,4,0,4.5c0.2,0,0.4,0,0.7,0c0-0.6,0-1.1,0-1.6c0.5-0.2,1,0.1,1.5-0.2
		c0.1-0.2,0.1-0.5-0.1-0.7c-0.4,0-0.8,0-1.3,0c0-0.4,0-0.7,0-1.1c0.6,0,1.1,0,1.7-0.1c0-0.3,0-0.5-0.1-0.7
		C56.9,81.7,56.2,81.7,55.3,81.7z M61.2,82.5c0,1.3,0,2.5,0,3.7c0.3,0,0.6,0,0.9,0c0-0.4,0-0.8,0-1.3c0-0.4,0-0.8,0-1.2
		c0-0.4-0.1-0.8,0.1-1.2c0.4,0,0.7-0.1,1-0.1c0-0.3,0-0.5,0-0.7c-0.6-0.1-2.6-0.1-3,0c-0.1,0.3-0.1,0.3,0.1,0.7
		C60.5,82.5,60.8,82.5,61.2,82.5z M16.3,81.8c0,1.5,0,2.9,0,4.4c0.3,0,0.5,0,0.8,0c0.1-0.8,0.1-4.1,0-4.5c-0.2,0-0.3,0-0.5,0
		C16.5,81.7,16.4,81.7,16.3,81.8z M39.3,86.2c0.1-0.6,0.1-4,0-4.5c-0.2,0-0.5,0-0.7,0c0,1.5,0,3,0,4.5c0.2,0,0.3,0,0.4,0
		C39.1,86.2,39.2,86.2,39.3,86.2z M58.6,81.7c0,1.6,0,3,0,4.5c0.3,0,0.6,0.1,0.9-0.1c0-1.5,0-2.9,0-4.4
		C59.1,81.7,58.9,81.7,58.6,81.7z"/>
	<g id="XMLID_00000093896534860930448310000002441817988886264242_">
		<g>
			<rect x="-24" y="-16" class="st0" width="138" height="131"/>
		</g>
		<g>
			<rect x="-24" y="-16" class="st1" width="138" height="131"/>
		</g>
	</g>
	<path class="st2" d="M11.7,20.6c0-5.7,0-11.3,0-16.9c0.1,0,0.3,0,0.4,0c0.3,0.4,0.5,0.8,0.7,1.1c0.5,0.6,1.3,0.9,2,1
		c1.7,0.4,3.4,0.3,5-0.5c0.8-0.4,1.1-0.8,1.4-1.6c0.1,0,0.1,0,0.2,0s0.2,0,0.3,0c0.3,1.1,1.1,1.6,2.1,2c1.7,0.6,3.4,0.5,5.1-0.1
		c1.1-0.4,1.4-0.8,1.8-1.8c0.1,0,0.3,0,0.4,0C31.5,5.2,32.8,5.7,34,6c1.5,0.3,2.9,0.3,4.3-0.3c0.3-0.1,0.5-0.2,0.7-0.4
		c0.5-0.3,0.9-0.8,1-1.4c0.2,0,0.3,0,0.5,0c0.2,1.1,1.1,1.6,2,1.9c1.5,0.2,2.7,0.3,4,0.1c0.5-0.1,1-0.2,1.5-0.4
		c0.9-0.3,1.5-0.9,1.8-1.8c0.1,0,0.3,0,0.4,0c0.4,1.3,1.5,1.8,2.7,2.1c1.7,0.4,3.4,0.3,5-0.5c0.7-0.3,1.2-0.8,1.4-1.6
		c0.2,0,0.3,0,0.5,0c0.1,0.1,0.1,0.1,0.1,0.1c0.2,1,1,1.5,1.9,1.8c1.4,0.5,2.8,0.6,4.2,0.3c0.6-0.1,1.2-0.4,1.7-0.7
		c0.6-0.3,1-0.8,1.1-1.5c0.2,0,0.3,0,0.4,0c0.1,0.3,0.2,0.6,0.4,0.8c0.3,0.4,0.7,0.7,1.2,0.9c1.9,0.8,3.9,0.8,5.9,0
		c0.8-0.3,1.4-0.8,1.6-1.8c0.2,0,0.3,0,0.5,0c0,0.1,0.1,0.1,0.1,0.2c0,0.2,0,0.3,0,0.5c0,5.2,0,10.4,0,15.7c0,0.2,0,0.3,0,0.5
		c0,0.1-0.1,0.1-0.1,0.1s0,0-0.1,0c-0.2,0-0.3,0-0.5,0C56.2,20.6,34,20.6,11.7,20.6z M38.3,16.1C38.3,16.1,38.4,16.1,38.3,16.1
		c0.7-0.4,1.3-0.8,2-1.3c0.7,0.5,1.3,0.9,1.9,1.3c0,0,0.1,0,0.1-0.1c-0.2-0.7-0.5-1.5-0.7-2.2c0.6-0.5,1.2-0.9,1.8-1.4v-0.1
		c-0.8,0-1.5,0-2.3,0c-0.3-0.8-0.4-1.6-0.8-2.3c-0.3,0.8-0.5,1.5-0.8,2.3c-0.8,0-1.6,0-2.4,0c0.7,0.5,1.3,1,2,1.5
		C38.8,14.6,38.5,15.3,38.3,16.1z M50.3,14.8c0.7,0.5,1.3,0.9,1.9,1.3l0.1-0.1c-0.2-0.7-0.5-1.4-0.7-2.2c0.6-0.5,1.2-0.9,1.8-1.4
		v-0.1c-0.8,0-1.5,0-2.2,0c-0.4-0.7-0.5-1.5-0.9-2.3c-0.3,0.8-0.5,1.6-0.8,2.3c-0.8,0-1.5,0-2.2,0v0.1c0.6,0.4,1.2,0.9,1.8,1.3
		c-0.2,0.8-0.5,1.5-0.8,2.4C49,15.7,49.6,15.3,50.3,14.8z M20.3,10c-0.3,0.8-0.5,1.6-0.8,2.4c-0.8,0-1.5,0-2.4,0
		c0.7,0.5,1.3,1,2,1.5c-0.2,0.7-0.5,1.5-0.7,2.4c0.7-0.5,1.4-1,2-1.4c0.7,0.5,1.3,0.9,2,1.5c-0.3-0.9-0.5-1.6-0.8-2.4
		c0.6-0.5,1.3-0.9,2-1.5c-0.9,0-1.7,0-2.5,0C20.9,11.6,20.6,10.8,20.3,10z M70.3,10c-0.3,0.8-0.5,1.6-0.8,2.4c-0.8,0-1.5,0-2.4,0
		c0.7,0.5,1.4,1,2,1.5c-0.3,0.8-0.5,1.5-0.8,2.4c0.8-0.5,1.4-1,2-1.4c0.7,0.5,1.3,0.9,2,1.4c-0.3-0.9-0.5-1.6-0.7-2.4
		c0.7-0.5,1.3-0.9,2-1.5c-0.9,0-1.7,0-2.5,0C70.8,11.6,70.6,10.9,70.3,10z M28.3,16C28.4,16,28.4,16.1,28.3,16
		c0.7-0.3,1.3-0.8,2-1.2c0.6,0.5,1.3,0.9,2,1.4c-0.3-0.9-0.5-1.6-0.7-2.4c0.6-0.5,1.2-0.9,1.8-1.4v-0.1c-0.8,0-1.5,0-2.3,0
		c-0.3-0.8-0.5-1.5-0.8-2.3c-0.4,0.8-0.4,1.6-0.9,2.3c-0.7,0-1.5,0-2.3,0c0.6,0.6,1.4,0.9,1.9,1.5C28.8,14.6,28.6,15.3,28.3,16z
		 M58.4,16C58.4,16,58.4,16.1,58.4,16c0.7-0.3,1.3-0.8,1.9-1.2c0.7,0.4,1.2,1,2,1.3c-0.2-0.8-0.6-1.5-0.6-2.3
		c0.6-0.5,1.2-0.9,1.8-1.3v-0.1c-0.8,0-1.5,0-2.3,0c-0.2-0.8-0.5-1.5-0.7-2.3c-0.4,0.8-0.5,1.6-0.9,2.3c-0.8,0-1.5,0-2.3,0
		c0.6,0.6,1.4,0.9,1.9,1.5C58.8,14.6,58.6,15.3,58.4,16z"/>
	<path class="st2" d="M12,23.6c1,0,1.9,0,2.9,0c0,3.8,0,7.6,0,11.3c0.7-1.8,1.3-3.7,1.8-5.6c0.6-1.9,1.1-3.8,1.7-5.7
		c1.1,0,2.2,0,3.2,0c-0.3,1.2-0.7,2.5-1,3.7c-0.9,2.9-1.7,5.9-2.6,8.8c0,0.2,0,0.4,0,0.6c0.7,3.3,1.3,6.5,2,9.8
		c0.4,2.2,0.9,4.4,1.3,6.5c0.3,1.4,0.5,2.8,0.9,4.2c0-0.2,0-0.5,0-0.7c0-10.7,0-21.4,0-32c0-0.3,0-0.5,0-0.7c0.6-0.2,2.3-0.2,2.9,0
		c0.1,0.5,0.1,35.1,0,35.9c-1-0.4-2-1-3-1.5s-2-1-3-1.5c-1-4.7-1.9-9.5-2.9-14.4c-0.1,0.2-0.2,0.3-0.2,0.5c-0.3,0.9-0.6,1.7-0.9,2.6
		c-0.1,0.3-0.2,0.7-0.2,1c0,2.5,0,5,0,7.5c0,0.2,0,0.4,0,0.8c-1-0.5-2-1-3-1.4C12,43.2,12,33.4,12,23.6z"/>
	<path class="st2" d="M57.6,41.8c0,1.8,0,3.5,0,5.3c0,1.5,0,3-0.1,4.5c-0.2,2.8-0.4,5.6-1.2,8.3c-0.5,2-1.4,3.9-2.6,5.6
		c-0.4,0.5-0.8,0.9-1.2,1.3c-0.6,0.6-2,0.5-2.8-0.2c-0.6-0.5-1-1.2-1.2-1.9c-0.6-1.5-1-3.1-1.2-4.8c-0.2-1.2-0.3-2.4-0.5-3.7
		c-0.1-0.7-0.1-1.4-0.2-2.1c-0.1-1.5-0.1-3.1-0.2-4.6c-0.2-3.9-0.1-7.7-0.1-11.6c0-1.4,0.2-2.9,0.3-4.3c0.1-1.5,0.3-2.9,0.7-4.3
		c0.3-1.4,0.8-2.8,1.5-4c0.6-0.9,1.3-1.7,2.4-2.1c0.5-0.2,1-0.2,1.4,0c0.9,0.3,1.5,0.8,2.1,1.5c0.9,1.2,1.4,2.5,1.8,3.9
		c0.4,1.7,0.7,3.4,0.8,5.1C57.6,36.3,57.6,39.1,57.6,41.8z M52,58.9c0.7-0.7,1.3-1.4,1.5-2.4c0.3-1.2,0.6-2.5,0.7-3.8
		c0.1-1.4,0.3-2.7,0.4-4.1c0.1-0.9,0-1.9,0-2.8c0-1.8,0.1-3.6,0.1-5.4c0-0.5-0.1-1-0.1-1.5c0-1.3-0.1-2.5-0.3-3.7
		c-0.2-1-0.4-2-0.9-2.9c-0.3-0.6-0.8-1.1-1.4-1.4c-0.5,0.1-0.8,0.5-1,0.9c-0.5,0.7-0.9,1.4-1.1,2.3c-0.4,1.6-0.6,3.2-0.6,4.8
		c0,1.8,0,3.6,0,5.3c0,0.7,0.1,1.5,0,2.2c-0.2,1.2,0,2.3,0.1,3.4c0,0.5,0.1,0.9,0.1,1.4c0.2,1.2,0.3,2.4,0.5,3.5s0.4,2.3,0.9,3.4
		C51.1,58.6,51.5,58.8,52,58.9z"/>
	<path class="st2" d="M36.7,23.7c0.9,0,1.8,0,2.8,0c0,5.3,0,10.6,0,15.8c1.3-5.2,2.4-10.5,3.6-15.7c0.4-0.1,2.4-0.1,3.2,0
		c0.1,0.4-0.1,0.8-0.2,1.2c-0.4,2.2-0.9,4.3-1.4,6.5c-0.5,2.3-1,4.6-1.5,6.9c-0.2,0.8-0.4,1.7-0.6,2.5c-0.1,0.4,0,0.7,0,1.1
		c0.2,1.6,0.5,3.2,0.8,4.8c0.3,1.8,0.6,3.7,0.9,5.5c0.2,1.5,0.4,3,0.7,4.5c0.3,1.7,0.6,3.5,0.9,5.2c0.3,1.9,0.6,3.9,0.9,5.8
		c0,0.3,0.1,0.5,0.1,0.8c-1.1,0.8-2.1,0.8-3.2,0.1c-0.2-1.6-0.5-3.2-0.7-4.8c-0.2-1.6-0.5-3.2-0.7-4.8s-0.5-3.2-0.7-4.8
		c-0.3-1.6-0.5-3.2-0.9-4.7c-0.4,1.5-0.7,3.1-1.1,4.6c-0.1,0.3-0.1,0.6-0.1,0.9c0,3.6,0,7.2,0,10.8c0,0.2,0,0.4,0,0.7
		c-1-0.4-1.9-0.9-2.8-1.3C36.6,64.7,36.6,24.3,36.7,23.7z"/>
	<path class="st2" d="M63.5,54.2c0.7-0.6,1.2-1.3,1.4-2.1c0.3-1,0.4-2,0.5-3.1c0.2-1.3,0.1-2.6,0.1-3.8c0-7,0-14,0-21.1
		c0-0.1,0-0.3,0-0.4c0.4-0.2,2.1-0.2,2.8-0.1c0,0.2,0,0.5,0,0.7c0,5.8,0,11.5,0,17.3c0,2,0,4,0,6c-0.1,2.6-0.3,5.3-1,7.8
		c-0.5,1.7-1.2,3.4-2.5,4.7c-0.4,0.5-0.9,0.9-1.5,1.1c-1.1,0.5-2.1,0.2-2.7-0.8c-0.6-0.9-0.9-1.8-1.2-2.9c-0.4-1.5-0.6-3-0.7-4.5
		c-0.1-0.9-0.1-1.8-0.1-2.7c0-1.6-0.1-3.1-0.1-4.7c0-7.1,0-14.2,0-21.3c0-0.2,0-0.5,0-0.8c0.5,0,1,0,1.4,0c0.5,0,0.9,0,1.5,0
		c0,0.2,0,0.4,0,0.5c0,7.5,0,14.9,0,22.4c0,2.1,0.2,4.2,0.7,6.2c0.1,0.5,0.3,1,0.9,1.3C63.2,54.2,63.3,54.2,63.5,54.2z"/>
	<path class="st2" d="M34.3,34.4c-0.3-0.9-0.6-1.7-0.9-2.6c-0.2-0.6-0.5-1.2-1.2-1.5c-0.9,0.3-1.4,1.1-1.9,1.9
		c-0.4,0.7-0.5,1.6-0.6,2.4c-0.5,2.2-0.4,4.5-0.4,6.8c0,0.9,0,1.7,0,2.6c0,1.2,0.1,2.3,0.2,3.5c0.1,1.3,0.3,2.5,0.5,3.8
		c0.1,1,0.3,2,0.7,2.9c0.2,0.5,0.5,1,0.8,1.5c0.1,0.1,0.2,0.2,0.3,0.4c0.5,0.5,1,0.5,1.5,0c0.3-0.3,0.5-0.7,0.7-1.2
		c0.2-0.6,0.4-1.1,0.6-1.7c0-0.1,0.1-0.1,0.2-0.3c0.3,1.1,0.5,2,0.7,3c0.2,1.1,0.5,2.1,0.7,3.2c0.1,0.3,0,0.6,0,0.9
		c-0.2,1-0.6,2-1.3,2.9c-0.6,0.8-1.4,1.2-2.5,1c-0.2,0-0.5-0.2-0.6-0.3c-0.9-0.6-1.6-1.5-2-2.5c-0.2-0.4-0.4-0.7-0.6-1.1
		c-0.6-1.1-1-2.3-1.3-3.5c-0.2-1-0.4-2.1-0.6-3.2c-0.1-0.8-0.1-1.6-0.2-2.4c-0.1-0.8-0.2-1.6-0.3-2.4c0-0.1,0-0.2,0-0.3
		c-0.1-1.3-0.1-2.5-0.2-3.8c0-1-0.1-2-0.1-3c0-1.4,0.1-2.8,0.2-4.2c0-0.6,0.1-1.2,0.1-1.8c0.2-1.2,0.4-2.4,0.6-3.6
		c0.2-1.1,0.3-2.2,0.6-3.2c0.4-1.7,1.1-3.3,2.3-4.7c0.5-0.5,1.1-0.9,1.9-1c0.4-0.1,0.8,0.1,1.1,0.3c0.6,0.3,1.1,0.8,1.4,1.4
		c0.7,1.1,1.1,2.3,1.4,3.5c0.1,0.2,0,0.5,0,0.8c-0.4,1.7-0.8,3.3-1.3,5C34.4,34.1,34.4,34.3,34.3,34.4z"/>
	<path class="st2" d="M72.2,29.5c-1.1,0-2.1,0.3-3.2,0.3c-0.1-0.5-0.1-5.6,0-6.2c3.2,0,6.4,0,9.6,0c0.1,0.5,0.1,4.3,0,5.3
		c-1.1,0.3-2.2,0.1-3.3,0.4c0,8.5,0,16.9,0,25.4c-1,0.5-1.9,1-2.8,1.4h-0.1c0,0,0,0,0-0.1v-0.1c0-8.8,0-17.5,0-26.3
		C72.3,29.7,72.3,29.6,72.2,29.5z"/>
	<path class="st2" d="M71.1,78.6c0-2.3,0-4.6,0-7c0.4-0.2,0.7-0.1,1-0.1s0.6,0,1,0c0.8,1.4,1.5,2.8,2.3,4.2h0.1c0-1.4,0-2.8,0-4.2
		c0.7,0,1.3,0,2,0c0.1,0.5,0.1,7.8,0,8.4c-0.6,0.1-1.3,0-1.9,0c-0.4-0.7-0.8-1.5-1.2-2.2c-0.4-0.7-0.8-1.5-1.2-2.3c0,1.6,0,3,0,4.5
		c-1.3,0.1-2.6,0-3.9,0c-0.2-0.7-0.4-1.3-0.6-2c-0.7,0-1.3,0-2,0c-0.4,0.6-0.4,1.3-0.7,2c-0.7,0-1.3,0-2,0c0.2-1,0.6-1.9,0.8-2.8
		c0.3-0.9,0.6-1.9,0.9-2.8s0.6-1.8,0.9-2.8c0.8,0,1.5,0,2.2,0c0.5,1.1,0.7,2.4,1.1,3.5c0.4,1.2,0.8,2.3,1.1,3.5
		C71,78.6,71.1,78.6,71.1,78.6z M67.7,74.4L67.7,74.4c-0.2,0.5-0.4,1.1-0.6,1.7c0.4,0,0.7,0,1.1,0C68,75.5,67.8,75,67.7,74.4z"/>
	<path class="st2" d="M53.6,80c-0.7,0-1.4,0-2.2,0c0.9-2.9,1.8-5.6,2.6-8.4c0.7,0,1.4,0,2.2,0c0.5,1.2,0.8,2.4,1.2,3.6
		s0.7,2.3,1.2,3.5c0-2.3,0-4.6,0-7c0.2,0,0.3-0.1,0.5-0.1c0.9,0,1.8,0,2.7,0c0.4,0,0.8,0.1,1.2,0.2c1.5,0.4,1.9,1.7,1.7,2.9
		c-0.2,1.6-1.4,2.4-2.8,2.4c-0.4,0-0.7,0-1.1,0c-0.1,0.5-0.1,1-0.1,1.4s0,0.9,0,1.3c-0.5,0.1-2.9,0.2-4,0.1c-0.1-0.3-0.2-0.6-0.3-1
		c-0.1-0.3-0.2-0.7-0.3-1c-0.7,0-1.3,0-2,0C54,78.6,53.8,79.3,53.6,80z M60.8,75.3c0.4,0,0.8,0,1.2,0s0.7-0.5,0.7-1
		c0-0.4-0.2-0.7-0.6-0.8c-0.4-0.1-0.9-0.2-1.3-0.1C60.8,74,60.8,74.6,60.8,75.3z M55.2,74.2c-0.2,0.7-0.4,1.3-0.5,1.8
		c0.5,0.2,0.5,0.2,1,0C55.5,75.5,55.4,74.9,55.2,74.2z"/>
	<path class="st2" d="M27.8,79.9c-0.7,0-1.4,0-2,0c0,0-0.1,0-0.1-0.1c0,0,0,0,0-0.1s0-0.3,0-0.4c0-2.6,0-5.2,0-7.7
		c0,0,0-0.1,0.1-0.1c0.6,0,1.3,0,2,0c0.1,0.9,0,1.7,0,2.8c0.8-1,1.4-1.9,2.1-2.8c1.2,0,2.3,0,3.5,0c0.4,1,0.8,2,1.2,3.1
		c0.4-1.1,0.9-2.1,1.3-3.1c0.7,0,1.4,0,2.2,0c0,0.3-0.1,0.4-0.1,0.5c-0.7,1.4-1.3,2.8-2,4.2c-0.2,0.3-0.3,0.7-0.2,1.1
		c0,0.7,0,1.3,0,2c0,0.2,0,0.4,0,0.6c-0.7,0-1.4,0-2.1,0c0-0.2,0-0.4,0-0.5c0-0.7,0-1.5,0-2.2c0-0.2,0-0.5-0.1-0.7
		c-0.5-1.2-1.1-2.4-1.7-3.6c0-0.1-0.1-0.1-0.1-0.2c-0.1,0.1-0.2,0.1-0.3,0.2c-0.4,0.5-0.8,1.1-1.3,1.6c-0.2,0.3-0.2,0.5,0,0.8
		c0.8,1.3,1.5,2.6,2.3,3.9c0.1,0.2,0.2,0.4,0.4,0.7C32.5,80,32.1,80,31.7,80c-0.4,0-0.7,0-1.1,0c-0.6-1.1-1.2-2.1-1.8-3.2
		c-0.5,0.4-0.8,0.7-0.8,1.4C27.9,78.7,27.8,79.3,27.8,79.9z"/>
	<path class="st2" d="M17.9,75.7c0-0.7,0.1-1.3,0.3-1.9c1-2.8,4.6-3,6.1-1.2c0.4,0.5,0.7,1,0.8,1.6c0.3,1.2,0.3,2.4-0.1,3.6
		c-0.5,1.4-1.5,2.2-3,2.4c-1.5,0.1-2.7-0.4-3.5-1.7C18.1,77.6,17.9,76.7,17.9,75.7z M20,75.8c0.1,0.4,0.2,0.9,0.3,1.4
		c0.2,0.5,0.6,0.9,1.3,0.9c0.6,0,1-0.3,1.2-0.8c0.5-1,0.5-2,0.1-3.1c-0.1-0.2-0.3-0.4-0.4-0.6c-0.5-0.5-1.6-0.5-2,0.2
		C20.2,74.5,20.1,75.1,20,75.8z"/>
	<path class="st2" d="M44.9,75.8c0,0.9-0.2,1.7-0.6,2.5c-0.7,1.3-1.8,1.8-3.2,1.8s-2.4-0.6-3-1.9c-0.9-1.8-0.9-3.6,0.2-5.4
		c0.6-1,1.5-1.4,2.6-1.5c1.5-0.1,2.6,0.4,3.4,1.7c0.4,0.6,0.6,1.4,0.6,2.1C44.9,75.4,44.9,75.6,44.9,75.8z M39.5,75.9
		c0.1,0.4,0.2,0.9,0.4,1.4s0.7,0.9,1.3,0.9s1-0.4,1.2-0.9c0.1-0.3,0.2-0.7,0.3-1.1c0.1-0.7,0-1.4-0.3-2.1c-0.2-0.5-0.7-0.7-1.2-0.7
		c-0.6,0-0.9,0.2-1.2,0.7C39.7,74.5,39.6,75.1,39.5,75.9z"/>
	<path class="st2" d="M18.1,71.6c0,0.6,0,1.1,0,1.7c-0.3,0.2-0.7,0.1-1,0.1c-0.3,0.1-0.7,0.1-1.1,0.1c0,2.1,0,4.2,0,6.3
		c-0.5,0.2-1.3,0.2-2.2,0.1c0-0.2,0-0.4,0-0.7c0-1.7,0-3.4,0-5.1c0-0.2,0-0.4,0-0.7c-0.7,0-1.4,0-2.1,0c-0.1-0.6,0-1.2,0-1.8
		C12.2,71.5,17.1,71.5,18.1,71.6z"/>
	<path class="st2" d="M46.4,78.3c0.5-0.4,1-0.7,1.5-1.1c0.1,0.2,0.2,0.4,0.3,0.5c0.2,0.2,0.3,0.3,0.5,0.4c0.4,0.2,0.7,0,0.9-0.4
		c0.1-0.2,0.1-0.5,0.1-0.8c0-1.6,0-3.1,0-4.7c0-0.2,0-0.4,0-0.7c0.7,0,1.4,0,2.1,0c0,0.2,0,0.3,0,0.5c0,1.8,0,3.5,0,5.3
		c0,0.4-0.1,0.8-0.2,1.1c-0.5,1.4-1.6,1.8-2.9,1.7c-0.9-0.1-1.7-0.6-2.1-1.4C46.5,78.6,46.4,78.4,46.4,78.3z"/>
	<path class="st2" d="M27,81.6c0.6,0,1.2,0,1.8,0.1c0.9,0.2,1.2,0.9,0.8,1.7c-0.1,0.1-0.1,0.2-0.3,0.4c0.1,0.1,0.2,0.2,0.3,0.3
		c0.4,0.4,0.3,0.9,0.2,1.4c-0.2,0.4-0.5,0.7-0.9,0.7c-0.6,0-1.3,0-1.9,0C26.9,85.7,26.9,82.3,27,81.6z M27.8,85.5
		c0.4,0,0.7,0.1,1-0.1c0.3-0.1,0.4-0.3,0.4-0.6c0-0.3-0.2-0.4-0.4-0.5c-0.3-0.1-0.6-0.1-1,0C27.8,84.7,27.8,85.1,27.8,85.5z
		 M27.8,83.5c0.4,0.1,0.7,0,0.9-0.1c0.2-0.1,0.3-0.4,0.2-0.6c-0.1-0.2-0.2-0.3-0.4-0.4c-0.2-0.1-0.5,0-0.7,0
		C27.8,82.8,27.8,83.2,27.8,83.5z"/>
	<path class="st2" d="M50.3,83.7c0-0.1-0.1-0.3-0.2-0.5c-0.1-0.5-0.1-0.9,0.3-1.3c0.3-0.4,0.8-0.4,1.2-0.2c0.4,0.2,0.6,0.7,0.4,1.1
		c-0.1,0.2-0.2,0.4-0.3,0.6s-0.3,0.3-0.5,0.5c0.3,0.3,0.6,0.6,0.9,1c0.2-0.4,0.4-0.8,0.5-1.2c0.2,0,0.4,0,0.7,0c0,0.6-0.3,1-0.6,1.5
		c0.2,0.1,0.4,0.2,0.6,0.4c0,0.2-0.1,0.4-0.1,0.6c-0.4,0-0.7-0.2-1-0.4c-0.2,0.1-0.4,0.2-0.6,0.3c-0.4,0.2-0.8,0.2-1.1,0.1
		c-0.7-0.2-1.2-1-0.9-1.7C49.8,84.3,50,84,50.3,83.7z M50.7,84.4c-0.4,0.5-0.4,0.8-0.1,1c0.3,0.3,0.5,0.3,0.9-0.1
		C51.2,85.1,51,84.8,50.7,84.4z M51.1,82.2c-0.4,0.4-0.5,0.5-0.2,1.1C51.6,82.8,51.7,82.6,51.1,82.2z"/>
	<path class="st2" d="M40.4,81.7c0.3,0,0.6,0,0.9,0c0.5,1,1,2.1,1.5,3.2c0-1.1,0-2.1,0-3.1c0.2-0.2,0.5-0.1,0.7-0.1
		c0.1,0.5,0.1,3.8,0,4.5c-0.2,0-0.5,0-0.8,0c-0.5-1-1-2-1.5-3h-0.1c0,0.5,0.1,1,0.1,1.5s0,1,0,1.5c-0.3,0-0.5,0-0.8,0
		C40.4,84.7,40.4,83.3,40.4,81.7z"/>
	<path class="st2" d="M66.2,84.9c0-1.1,0-2.1,0-3.2c0.2,0,0.4,0,0.7,0c0,1.5,0,3,0,4.5c-0.1,0-0.2,0-0.3,0c-0.2,0-0.3,0-0.6,0
		c-0.5-1-1-2-1.5-3.1c0,1,0,2,0,3.1c-0.3,0-0.5,0-0.7,0c-0.1-0.5-0.2-3.9,0-4.5c0.6-0.2,0.7-0.2,1,0.4c0.4,0.8,0.8,1.7,1.2,2.5
		C66.1,84.8,66.2,84.8,66.2,84.9z"/>
	<path class="st2" d="M34.2,84c0,0.6-0.1,1.1-0.4,1.6c-0.5,1-2.1,1-2.7,0.4s-0.7-1.4-0.7-2.1c0-0.3,0.1-0.7,0.2-1
		c0.3-0.8,0.9-1.1,1.6-1.2c0.7,0,1.3,0.3,1.6,1C34.2,83,34.2,83.5,34.2,84z M31.3,83.9c0.1,0.3,0.1,0.7,0.2,1
		c0.1,0.4,0.6,0.7,0.9,0.6c0.4,0,0.7-0.3,0.8-0.6c0.3-0.7,0.2-1.3-0.1-2c-0.2-0.4-0.4-0.5-0.8-0.5c-0.4,0-0.7,0.2-0.8,0.6
		C31.4,83.3,31.4,83.6,31.3,83.9z"/>
	<path class="st2" d="M46.9,84.6c-0.2,0-0.4,0-0.5-0.1c-0.2-0.2-0.2-0.4,0-0.7c0.5,0,0.9,0,1.4,0c0.1,0.3,0.1,0.7,0.1,1s0,0.6,0,0.9
		c-0.8,0.9-2,0.9-2.8,0c-0.9-1-0.8-3,0.3-3.8c0.6-0.4,1.8-0.5,2.3,0.3c-0.1,0.2-0.2,0.3-0.3,0.5c-0.2-0.1-0.3-0.1-0.4-0.2
		c-0.6-0.3-1.2-0.1-1.5,0.6c-0.2,0.5-0.2,1.1-0.1,1.6c0.2,0.7,0.9,1,1.6,0.7C47,85.1,47,84.8,46.9,84.6z"/>
	<path class="st2" d="M21.9,81.7c0.2,0,0.5,0,0.7,0c0,0.6,0,1.2,0,1.7h0.1c0.4-0.6,0.8-1.2,1.3-1.8c0.3,0,0.5,0,0.9,0
		c-0.4,0.6-0.8,1.2-1.2,1.8c0.2,0.5,0.5,0.9,0.7,1.3s0.5,0.8,0.7,1.3c-0.3,0.2-0.6,0.1-0.8,0.1c-0.3-0.6-0.7-1.2-1-1.8
		c-0.7,0.5-0.5,1.2-0.6,1.8c-0.3,0-0.5,0-0.7,0C21.8,85.7,21.8,82.4,21.9,81.7z"/>
	<path class="st2" d="M12.6,81.7c0.2,0,0.5,0,0.7,0c0,0.6,0,1.2,0,1.8h0.1c0.4-0.6,0.9-1.2,1.3-1.9c0.3,0,0.5,0,0.8,0
		c-0.1,0.2-0.1,0.3-0.2,0.4c-0.2,0.3-0.4,0.7-0.7,0.9c-0.3,0.3-0.2,0.6,0,0.9c0.3,0.5,0.6,1,0.8,1.5c0.1,0.2,0.2,0.4,0.3,0.7
		c-0.3,0.2-0.6,0.1-0.9,0.1c-0.3-0.6-0.7-1.2-1-1.9c-0.7,0.4-0.6,1.2-0.6,1.9c-0.3,0-0.5,0-0.7,0C12.5,85.7,12.4,82.4,12.6,81.7z"/>
	<path class="st2" d="M68.8,83.5c0.5,0,0.9,0,1.4,0c0,0.3,0,0.5,0,0.7c-0.5,0-1,0-1.5,0.1c0,0.4,0,0.7,0,1.1c0.6,0,1.1,0,1.7,0
		c0,0.3,0,0.5,0,0.8c-0.8,0-1.7,0-2.5,0c0-1.5,0-3,0-4.5c0.7-0.1,2-0.1,2.5,0c0,0.2,0,0.4,0,0.7c-0.3,0-0.6,0-0.8,0
		c-0.3,0-0.5,0-0.8,0C68.7,82.8,68.8,83.1,68.8,83.5z"/>
	<path class="st2" d="M71.2,85.7c0.2-0.2,0.3-0.4,0.4-0.5c0.3,0.1,0.5,0.3,0.8,0.3c0.2,0.1,0.5,0.1,0.7,0c0.3-0.1,0.4-0.6,0.1-0.8
		c-0.1-0.1-0.2-0.1-0.3-0.2c-0.3-0.1-0.6-0.3-0.9-0.4c-0.6-0.4-0.7-1.1-0.5-1.7s0.9-0.9,1.6-0.8c0.4,0.1,0.8,0.2,1,0.6
		c-0.1,0.1-0.2,0.3-0.3,0.5c-0.3-0.1-0.5-0.2-0.8-0.3c-0.1,0-0.3,0-0.4,0c-0.4,0.1-0.4,0.5-0.1,0.8c0.2,0.2,0.5,0.3,0.7,0.4
		c0.4,0.2,0.7,0.4,0.9,0.8c0.4,0.8,0,1.8-0.9,2C72.5,86.5,71.8,86.3,71.2,85.7z"/>
	<path class="st2" d="M77.6,82.2c-0.1,0.2-0.2,0.3-0.3,0.4c-0.4-0.1-0.7-0.2-1-0.2s-0.5,0.1-0.5,0.4c-0.1,0.3,0.1,0.4,0.3,0.5
		c0.2,0.1,0.5,0.2,0.7,0.3c0.4,0.2,0.8,0.4,0.9,0.9c0.2,0.7-0.2,1.6-0.9,1.7c-0.8,0.2-1.5,0.1-2-0.6c0.1-0.2,0.3-0.4,0.4-0.6
		c0.2,0.1,0.3,0.2,0.4,0.2c0.2,0.1,0.4,0.2,0.6,0.2c0.5,0,0.7-0.2,0.6-0.8c-0.3-0.2-0.7-0.3-1.1-0.5s-0.7-0.5-0.8-1
		c-0.2-0.9,0.6-1.7,1.5-1.6C76.8,81.6,77.3,81.7,77.6,82.2z"/>
	<path class="st2" d="M36.3,84.6c-0.3,0.6-0.5,1.1-0.7,1.6c-0.3,0-0.5,0-0.9,0c0.4-0.8,0.7-1.5,1.1-2.3c-0.3-0.7-0.7-1.4-1.1-2.2
		c0.3,0,0.6,0,0.9,0c0.2,0.5,0.4,1,0.7,1.5c0.4-0.5,0.4-1.1,0.8-1.5c0.3,0,0.5,0,0.8,0c-0.4,0.8-0.7,1.5-1.1,2.3
		c0.4,0.7,0.7,1.5,1.1,2.3c-0.3,0-0.6,0-0.9,0C36.8,85.7,36.5,85.2,36.3,84.6z"/>
	<path class="st2" d="M21.2,85.7c-1.1,1.1-2.5,0.8-3-0.6c-0.4-1-0.3-1.9,0.3-2.8c0.6-0.9,1.8-1,2.6-0.2c0,0.1-0.1,0.2-0.1,0.3
		c-0.1,0.1-0.1,0.2-0.2,0.3c-0.2-0.1-0.3-0.2-0.5-0.2c-0.5-0.2-0.9,0-1.2,0.4c-0.3,0.6-0.4,1.3-0.1,1.9c0.3,0.7,0.9,0.9,1.5,0.5
		c0.1-0.1,0.2-0.1,0.3-0.2C20.9,85.3,21.1,85.5,21.2,85.7z"/>
	<path class="st2" d="M55.3,81.7c0.8,0,1.6,0,2.5,0c0,0.2,0,0.4,0.1,0.7c-0.6,0-1.1,0-1.7,0.1c0,0.4,0,0.7,0,1.1c0.4,0,0.9,0,1.3,0
		c0.2,0.3,0.2,0.5,0.1,0.7c-0.4,0.3-0.9,0-1.5,0.2c0,0.5,0,1,0,1.6c-0.3,0-0.5,0-0.7,0C55.2,85.7,55.2,82.5,55.3,81.7z"/>
	<path class="st2" d="M61.2,82.5c-0.4,0-0.7,0-1,0c-0.1-0.3-0.1-0.3-0.1-0.7c0.5-0.1,2.4-0.1,3,0c0,0.2,0,0.4,0,0.7
		c-0.3,0-0.7,0.1-1,0.1C61.9,83,62,83.4,62,83.8c0,0.4,0,0.8,0,1.2c0,0.4,0,0.8,0,1.3c-0.3,0-0.6,0-0.9,0
		C61.2,85,61.2,83.8,61.2,82.5z"/>
	<path class="st2" d="M16.3,81.8c0.1,0,0.2-0.1,0.2-0.1c0.2,0,0.3,0,0.5,0c0.1,0.4,0.2,3.7,0,4.5c-0.2,0-0.5,0-0.8,0
		C16.3,84.7,16.3,83.3,16.3,81.8z"/>
	<path class="st2" d="M39.3,86.2c-0.1,0-0.2,0-0.4,0c-0.1,0-0.2,0-0.4,0c0-1.5,0-3,0-4.5c0.3,0,0.5,0,0.7,0
		C39.4,82.2,39.4,85.6,39.3,86.2z"/>
	<path class="st2" d="M58.6,81.7c0.3,0,0.5,0,0.8,0c0.1,1.5,0,3,0,4.4c-0.3,0.2-0.6,0.1-0.9,0.1C58.6,84.7,58.6,83.2,58.6,81.7z"/>
	<path class="st0" d="M38.3,16.1c0.2-0.7,0.5-1.4,0.7-2.2c-0.6-0.5-1.2-0.9-2-1.5c0.8,0,1.6,0,2.4,0c0.3-0.8,0.5-1.5,0.8-2.3
		c0.4,0.7,0.5,1.5,0.8,2.3c0.8,0,1.5,0,2.3,0v0.1c-0.6,0.4-1.2,0.9-1.8,1.4c0.2,0.8,0.5,1.5,0.7,2.2c0,0-0.1,0-0.1,0.1
		c-0.6-0.4-1.3-0.9-1.9-1.3C39.6,15.2,39,15.7,38.3,16.1C38.4,16.1,38.3,16.1,38.3,16.1z"/>
	<path class="st0" d="M50.3,14.8c-0.7,0.5-1.3,0.9-2,1.4c0.3-0.9,0.5-1.6,0.8-2.4c-0.6-0.5-1.2-0.9-1.8-1.3v-0.1c0.7,0,1.4,0,2.2,0
		c0.3-0.7,0.5-1.5,0.8-2.3c0.4,0.8,0.5,1.5,0.9,2.3c0.7,0,1.5,0,2.2,0v0.1c-0.6,0.5-1.2,0.9-1.8,1.4c0.2,0.8,0.5,1.5,0.7,2.2
		l-0.1,0.1C51.6,15.7,51,15.2,50.3,14.8z"/>
	<path class="st0" d="M20.3,10c0.3,0.8,0.5,1.6,0.8,2.3c0.8,0,1.5,0,2.5,0c-0.7,0.6-1.4,1-2,1.5c0.2,0.8,0.5,1.5,0.8,2.4
		c-0.7-0.5-1.4-1-2-1.5c-0.6,0.5-1.3,0.9-2,1.4c0.3-0.9,0.5-1.6,0.7-2.4c-0.7-0.5-1.3-0.9-2-1.5c0.9,0,1.7,0,2.4,0
		C19.8,11.6,20.1,10.8,20.3,10z"/>
	<path class="st0" d="M70.3,10c0.3,0.9,0.5,1.6,0.8,2.4c0.8,0,1.6,0,2.5,0c-0.7,0.5-1.3,1-2,1.5c0.2,0.7,0.5,1.5,0.7,2.4
		c-0.7-0.5-1.3-0.9-2-1.4c-0.6,0.5-1.3,0.9-2,1.4c0.3-0.9,0.5-1.6,0.8-2.4c-0.6-0.5-1.2-0.9-2-1.5c0.9,0,1.6,0,2.4,0
		C69.7,11.6,70,10.8,70.3,10z"/>
	<path class="st0" d="M28.3,16c0.2-0.7,0.5-1.4,0.7-2.1c-0.5-0.6-1.3-0.9-1.9-1.5c0.8,0,1.5,0,2.3,0c0.5-0.7,0.4-1.6,0.9-2.3
		c0.3,0.8,0.5,1.5,0.8,2.3c0.8,0,1.5,0,2.3,0v0.1c-0.6,0.4-1.2,0.9-1.8,1.4c0.2,0.7,0.5,1.5,0.7,2.4c-0.7-0.5-1.3-0.9-2-1.4
		C29.7,15.2,29,15.7,28.3,16C28.4,16.1,28.4,16,28.3,16z"/>
	<path class="st0" d="M58.4,16c0.2-0.7,0.4-1.4,0.7-2.1c-0.5-0.6-1.3-0.9-1.9-1.5c0.8,0,1.5,0,2.3,0c0.4-0.7,0.5-1.5,0.9-2.3
		c0.3,0.8,0.5,1.5,0.7,2.3c0.8,0,1.5,0,2.3,0v0.1c-0.6,0.4-1.2,0.9-1.8,1.3c0,0.8,0.5,1.5,0.6,2.3c-0.8-0.3-1.3-0.9-2-1.3
		C59.7,15.2,59.1,15.7,58.4,16C58.4,16.1,58.4,16,58.4,16z"/>
	<path class="st0" d="M52,58.9c-0.6-0.1-0.9-0.3-1.1-0.8c-0.4-1.1-0.7-2.2-0.9-3.4s-0.3-2.3-0.5-3.5c-0.1-0.5-0.1-0.9-0.1-1.4
		c0-1.1-0.2-2.3-0.1-3.4c0.1-0.7,0-1.5,0-2.2c0-1.8,0-3.6,0-5.3c0-1.6,0.2-3.2,0.6-4.8c0.2-0.8,0.6-1.6,1.1-2.3
		c0.3-0.4,0.6-0.7,1-0.9c0.7,0.3,1.1,0.8,1.4,1.4c0.5,0.9,0.7,1.9,0.9,2.9c0.2,1.2,0.3,2.5,0.3,3.7c0,0.5,0.1,1,0.1,1.5
		c0,1.8-0.1,3.6-0.1,5.4c0,0.9,0,1.9,0,2.8c-0.1,1.4-0.2,2.7-0.4,4.1c-0.1,1.3-0.3,2.6-0.7,3.8C53.3,57.5,52.7,58.3,52,58.9z"/>
	<path class="st0" d="M67.7,74.4c0.2,0.6,0.3,1.1,0.5,1.7c-0.4,0-0.7,0-1.1,0C67.3,75.5,67.4,74.9,67.7,74.4
		C67.6,74.4,67.6,74.4,67.7,74.4z"/>
	<path class="st0" d="M60.8,75.3c0-0.6,0-1.2,0-1.9c0.4-0.1,0.9-0.1,1.3,0.1c0.4,0.1,0.6,0.4,0.6,0.8c0,0.5-0.3,0.9-0.7,1
		C61.6,75.3,61.2,75.3,60.8,75.3z"/>
	<path class="st0" d="M55.2,74.2c0.2,0.7,0.3,1.3,0.5,1.8c-0.5,0.2-0.5,0.2-1,0C54.8,75.4,55,74.9,55.2,74.2z"/>
	<path class="st0" d="M20,75.8c0.1-0.7,0.2-1.4,0.5-1.9c0.4-0.7,1.6-0.7,2-0.2c0.2,0.2,0.3,0.4,0.4,0.6c0.4,1,0.4,2.1-0.1,3.1
		c-0.2,0.5-0.6,0.8-1.2,0.8s-1.1-0.4-1.3-0.9C20.2,76.7,20.1,76.2,20,75.8z"/>
	<path class="st0" d="M39.5,75.9c0.1-0.7,0.1-1.3,0.4-1.8c0.3-0.5,0.7-0.7,1.2-0.7s1,0.2,1.2,0.7c0.3,0.7,0.5,1.3,0.3,2.1
		c-0.1,0.4-0.1,0.8-0.3,1.1c-0.2,0.5-0.6,0.9-1.2,0.9c-0.7,0-1.1-0.3-1.3-0.9C39.7,76.8,39.6,76.2,39.5,75.9z"/>
	<path class="st0" d="M27.8,85.5c0-0.4,0-0.8,0-1.2c0.3-0.1,0.6-0.1,1,0c0.2,0.1,0.4,0.2,0.4,0.5s-0.1,0.5-0.4,0.6
		C28.5,85.6,28.2,85.6,27.8,85.5z"/>
	<path class="st0" d="M27.8,83.5c0-0.4,0-0.7,0-1.1c0.3,0,0.5,0,0.7,0s0.3,0.2,0.4,0.4c0.1,0.2,0,0.4-0.2,0.6
		C28.5,83.6,28.2,83.6,27.8,83.5z"/>
	<path class="st0" d="M50.7,84.4c0.3,0.3,0.6,0.7,0.8,1c-0.4,0.3-0.6,0.3-0.9,0.1C50.2,85.2,50.3,84.9,50.7,84.4z"/>
	<path class="st0" d="M51.1,82.2c0.5,0.3,0.5,0.6-0.2,1.1C50.6,82.7,50.7,82.6,51.1,82.2z"/>
	<path class="st0" d="M31.3,83.9c0.1-0.3,0.1-0.7,0.3-1c0.1-0.4,0.4-0.5,0.8-0.6c0.4,0,0.7,0.2,0.8,0.5c0.3,0.7,0.3,1.3,0.1,2
		c-0.1,0.4-0.4,0.6-0.8,0.6c-0.3,0-0.8-0.3-0.9-0.6C31.4,84.6,31.4,84.3,31.3,83.9z"/>
</g>
</svg>
